<?xml version="1.0" encoding="utf-8"?>
<!-- Generator: Adobe Illustrator 18.1.0, SVG Export Plug-In . SVG Version: 6.00 Build 0)  -->
<svg version="1.1" id="Layer_1" xmlns="http://www.w3.org/2000/svg" xmlns:xlink="http://www.w3.org/1999/xlink" x="0px" y="0px"
	 viewBox="0 0 43.7 46" enable-background="new 0 0 43.7 46" xml:space="preserve">
<g>
	<polygon fill="none" points="317.9,-897.9 317.9,-897.9 323.1,-903 322.2,-903.9 317.1,-898.7 311.9,-903.9 311.1,-903 
		316.2,-897.9 316.2,-897.9 316.2,-897.9 311.1,-892.7 311.9,-891.9 317.1,-897 322.2,-891.9 323.1,-892.7 317.9,-897.9 	"/>
</g>
<g>
	<g>
		<path fill="#082F4F" d="M6.8,28.2c-0.5,0-1,0.4-1,1V45c0,0.5,0.4,1,1,1c0.5,0,1-0.4,1-1V29.2C7.8,28.6,7.3,28.2,6.8,28.2z
			 M6.8,10.4c2.2,0,3.6-2.7,3.6-4.5c0-2-1.6-3.6-3.6-3.6c-2,0-3.6,1.6-3.6,3.6C3.2,7.7,4.6,10.4,6.8,10.4z M6.8,4.3
			c0.9,0,1.6,0.7,1.6,1.6c0,1.1-0.9,2.5-1.6,2.5C6.1,8.4,5.1,7,5.1,5.9C5.1,5,5.9,4.3,6.8,4.3z M12.3,11.1c-0.1-0.1-0.2-0.2-0.4-0.2
			c-0.2,0-0.4-0.1-1.4-0.1l-0.5,0C9.2,10.7,8.4,11.2,8,12c-0.2,0.5-0.8,0.6-1.2,0.6s-1-0.2-1.2-0.6c-0.4-0.8-1.2-1.3-2.1-1.2l-0.5,0
			c-1,0-1.2,0.1-1.4,0.1c-0.1,0-0.3,0.1-0.4,0.2c-0.4,0.4-1.6,1.3-1.1,15c0,0.3,0.2,0.6,0.4,0.8c0.3,0.2,0.6,0.3,0.9,0.3l1,17.9
			c0,0.5,0.5,1,1,0.9c0.5,0,1-0.5,0.9-1l-1-18.7c0-0.3-0.2-0.6-0.4-0.8c-0.3-0.2-0.6-0.3-0.9-0.3C1.8,16,2.3,13.4,2.4,12.8
			c0.2,0,0.4,0,0.6,0l0.6,0c0.1,0,0.1,0.1,0.2,0.2c0.5,1,1.7,1.7,3,1.7c1.3,0,2.5-0.6,3-1.7c0-0.1,0.2-0.1,0.2-0.2l0.6,0
			c0.2,0,0.4,0,0.6,0c0.2,0.8,0.7,3.5,0.4,12.4c-0.3,0-0.6,0.1-0.9,0.3c-0.2,0.2-0.4,0.5-0.4,0.8l-1,18.7c0,0.5,0.4,1,0.9,1
			c0,0,0,0,0.1,0c0.5,0,1-0.4,1-0.9l1-17.9c0.3,0,0.6-0.1,0.9-0.3c0.2-0.2,0.4-0.5,0.4-0.8C13.9,12.4,12.8,11.4,12.3,11.1z M29.4,0
			c-4.2,0-7.6,3.4-7.6,7.5c0,2.1,0.9,4.4,2.4,6.2c0,0,0,0,0,0.1c0.4,0.5,1.3,1.8,1.6,3c-0.2,0.2-0.3,0.4-0.3,0.7v4.9
			c0,0.5,0.4,1,1,1h0.8L28,24c0.2,0.2,0.4,0.3,0.7,0.3h1.5c0.3,0,0.5-0.1,0.7-0.3l0.7-0.7h0.8c0.5,0,1-0.4,1-1v-4.9
			c0-0.3-0.1-0.5-0.3-0.7c0.3-1,1-2.3,1.5-3C36.1,12,37,9.7,37,7.5C37,3.4,33.6,0,29.4,0z M31.3,21.3h-0.2c-0.3,0-0.5,0.1-0.7,0.3
			l-0.7,0.7h-0.7l-0.7-0.7c-0.2-0.2-0.4-0.3-0.7-0.3h-0.2v-2.9h3.9V21.3z M33.1,12.5c-0.2,0.2-1.6,2.1-2,3.9h-0.7v-5.3
			c0-0.5-0.4-1-1-1c-0.5,0-1,0.4-1,1v5.3h-0.6c-0.4-1.7-1.6-3.4-1.9-3.8c0,0-0.1-0.1-0.1-0.1c-1.2-1.4-1.9-3.3-1.9-5
			c0-3.1,2.5-5.5,5.6-5.5C32.5,2,35,4.5,35,7.5C35,9.2,34.3,11.1,33.1,12.5z M19.9,7.6c0-0.5-0.4-1-1-1h-2.7c-0.5,0-1,0.4-1,1
			s0.4,1,1,1h2.7C19.5,8.6,19.9,8.1,19.9,7.6z M18.5,0.6c-0.4-0.4-1-0.4-1.4,0c-0.4,0.4-0.4,1,0,1.4l2.2,2.1
			c0.2,0.2,0.4,0.3,0.7,0.3c0.3,0,0.5-0.1,0.7-0.3c0.4-0.4,0.4-1,0-1.4L18.5,0.6z M19.4,11l-2.2,2.1c-0.4,0.4-0.4,1,0,1.4
			c0.2,0.2,0.5,0.3,0.7,0.3c0.2,0,0.5-0.1,0.7-0.3l2.2-2.1c0.4-0.4,0.4-1,0-1.4C20.4,10.6,19.8,10.6,19.4,11z M42.7,6.6H40
			c-0.5,0-1,0.4-1,1s0.4,1,1,1h2.7c0.5,0,1-0.4,1-1S43.2,6.6,42.7,6.6z M38.9,4.5c0.2,0,0.5-0.1,0.7-0.3l2.2-2.1
			c0.4-0.4,0.4-1,0-1.4c-0.4-0.4-1-0.4-1.4,0l-2.2,2.1c-0.4,0.4-0.4,1,0,1.4C38.3,4.4,38.6,4.5,38.9,4.5z M39.5,11
			c-0.4-0.4-1-0.4-1.4,0c-0.4,0.4-0.4,1,0,1.4l2.2,2.1c0.2,0.2,0.4,0.3,0.7,0.3c0.3,0,0.5-0.1,0.7-0.3c0.4-0.4,0.4-1,0-1.4L39.5,11z
			 M31.6,6.5l-1.1,0.4l-0.5-0.3c-0.3-0.2-0.7-0.2-1,0l-0.5,0.3l-1-0.4c-0.5-0.2-1.1,0.1-1.3,0.6c-0.2,0.5,0.1,1.1,0.6,1.3l1.4,0.5
			c0.1,0,0.2,0.1,0.3,0.1c0.2,0,0.4,0,0.5-0.1l0.4-0.2l0.4,0.2c0.2,0.1,0.5,0.2,0.8,0.1l1.5-0.5c0.5-0.2,0.8-0.7,0.6-1.3
			C32.6,6.6,32.1,6.3,31.6,6.5z"/>
	</g>
</g>
</svg>
