<?xml version="1.0" encoding="utf-8"?>
<!-- Generator: Adobe Illustrator 18.1.0, SVG Export Plug-In . SVG Version: 6.00 Build 0)  -->
<svg version="1.1" id="Layer_1" xmlns="http://www.w3.org/2000/svg" xmlns:xlink="http://www.w3.org/1999/xlink" x="0px" y="0px"
	 viewBox="0 0 39.3 31.2" enable-background="new 0 0 39.3 31.2" xml:space="preserve">
<g>
	<polygon fill="none" points="312.6,-904.2 312.6,-904.2 317.7,-909.3 316.8,-910.2 311.7,-905 306.6,-910.2 305.7,-909.3 
		310.8,-904.2 310.8,-904.2 310.8,-904.2 305.7,-899 306.6,-898.2 311.7,-903.3 316.8,-898.2 317.7,-899 312.6,-904.2 	"/>
</g>
<path fill="#E2E2E2" d="M37.6,18.6c-1.1-1.4-2.7-2.1-4.7-2.1c-0.7,0-1.3,0.1-1.6,0.1c0-2.8,0.7-5.1,2-7c1.3-1.8,3.1-3.3,5.3-4.4
	L34.9,0c-1.1,0.4-2.4,1.1-3.8,2.1c-1.5,1-2.9,2.3-4.2,4c-1.4,1.7-2.5,3.7-3.5,6c-1,2.4-1.4,5.2-1.4,8.5c0,3.5,0.9,6.1,2.6,7.9
	c1.7,1.8,4,2.7,6.7,2.7c2.3,0,4.2-0.7,5.7-2c1.5-1.4,2.3-3.2,2.3-5.5C39.3,21.7,38.7,20,37.6,18.6z M15.7,18.6
	c-1.1-1.4-2.7-2.1-4.6-2.1c-0.7,0-1.3,0.1-1.7,0.1c0-2.8,0.7-5.1,2-7c1.3-1.8,3.1-3.3,5.3-4.4L13,0c-1.1,0.4-2.4,1.1-3.8,2.1
	c-1.5,1-2.9,2.3-4.2,4c-1.3,1.7-2.5,3.7-3.4,6c-1,2.4-1.4,5.2-1.4,8.5c0,3.5,0.9,6.1,2.6,7.9c1.7,1.8,4,2.7,6.7,2.7
	c2.3,0,4.2-0.7,5.7-2c1.5-1.4,2.3-3.2,2.3-5.5C17.4,21.7,16.8,20,15.7,18.6z"/>
</svg>
