<?xml version="1.0" encoding="utf-8"?>
<!-- Generator: Adobe Illustrator 18.1.0, SVG Export Plug-In . SVG Version: 6.00 Build 0)  -->
<svg version="1.1" id="Layer_1" xmlns="http://www.w3.org/2000/svg" xmlns:xlink="http://www.w3.org/1999/xlink" x="0px" y="0px"
	 viewBox="0 0 47.8 27.8" enable-background="new 0 0 47.8 27.8" xml:space="preserve">
<path fill="#082F4F" d="M47.7,16.7L43.5,1.2c-0.1-0.3-0.2-0.5-0.5-0.6c-0.2-0.1-0.5-0.2-0.8-0.1l-7.3,2.1c-0.4,0.1-0.7,0.5-0.7,0.9
	l-1.4,0.4c-6.6-3.4-9.5-2.7-9.7-2.7C22,1.4,21,1.8,20.1,2.3c-3.4,0.1-5.4,0.2-6.6,0.5c-0.1-0.3-0.3-0.5-0.6-0.6L5.5,0
	C5.3,0,5,0,4.8,0.1C4.5,0.3,4.4,0.5,4.3,0.8L0,16.3c-0.2,0.5,0.2,1.1,0.7,1.3L8,19.7c0.1,0,0.2,0,0.3,0c0.2,0,0.3,0,0.5-0.1
	c0.2-0.1,0.4-0.4,0.5-0.6L9.8,17c2.9,4,9.4,9.2,10.3,9.9c0.8,0.7,1.5,0.9,2.2,0.9c0.9,0,1.6-0.4,2.1-1c0.2-0.3,0.4-0.6,0.5-0.9
	l0.4,0.3c0.7,0.6,1.4,0.9,2.2,0.9c0.3,0,0.6-0.1,0.9-0.2c0.9-0.3,1.6-1.2,1.9-2.2c1.2,0.3,2.4-0.2,3.1-1.1c0.5-0.6,0.8-1.3,0.8-2
	c0.8-0.1,1.6-0.5,2.1-1.2c0.3-0.4,0.6-0.9,0.7-1.5c0.4,0,0.9-0.1,1.3-0.2l0.2,0.6c0.1,0.3,0.2,0.5,0.5,0.6c0.2,0.1,0.3,0.1,0.5,0.1
	c0.1,0,0.2,0,0.3,0L47,18C47.6,17.8,47.9,17.2,47.7,16.7z M7.6,17.4l-5.3-1.6L6,2.3l5.3,1.6L7.6,17.4z M34.8,19.2
	c-0.1,0.1-0.8,0.8-1.5,0.2l-0.1-0.1c0,0,0,0,0,0l0,0c0,0,0,0,0,0l-4.3-3.7c-0.4-0.4-1.1-0.3-1.4,0.1c-0.4,0.4-0.3,1.1,0.1,1.5
	l4.3,3.7l0,0l0,0c0.7,0.7,0.2,1.4,0.1,1.6c-0.1,0.1-0.8,0.8-1.5,0.2l-1-0.9v0h0c0,0,0,0,0,0c0-0.1-0.1-0.1-0.2-0.2l-3.5-2.9
	c-0.4-0.4-1.1-0.3-1.4,0.1c-0.4,0.4-0.3,1.1,0.1,1.5l3.5,2.9c0,0.1,0.1,0.1,0.1,0.2c0,0,0,0,0,0l0,0c0.4,0.3,0.4,0.7,0.4,1
	c-0.1,0.4-0.3,0.7-0.7,0.8c-0.4,0.2-0.9-0.1-1.1-0.4L22.5,21c0,0-0.1-0.1-0.2-0.1c-0.1,0-0.1-0.1-0.2-0.1c-0.1,0-0.1,0-0.2,0
	c-0.1,0-0.1,0-0.2,0c-0.1,0-0.1,0-0.2,0c-0.1,0-0.1,0-0.2,0c-0.1,0-0.1,0.1-0.2,0.1c0,0-0.1,0.1-0.1,0.1c0,0,0,0,0,0c0,0,0,0,0,0
	c0,0.1-0.1,0.1-0.1,0.2c0,0.1-0.1,0.1-0.1,0.2c0,0.1,0,0.1,0,0.2c0,0.1,0,0.1,0,0.2c0,0.1,0,0.1,0,0.2c0,0.1,0,0.1,0,0.2
	c0,0.1,0.1,0.1,0.1,0.2c0,0,0.1,0.1,0.1,0.1l1.6,1.6c0.6,0.5,0.5,1.1,0.2,1.4c-0.3,0.4-0.9,0.4-1.6-0.2c-2.6-2.1-9.6-8-10.8-10.9
	L13.1,5c0.5-0.1,1.7-0.3,4.4-0.5c-0.9,1.1-1.6,2.4-1.9,3.7c-0.5,1.9-0.1,3.6,1,4.4c0.6,0.5,1.4,0.6,2.1,0.5c1.8-0.3,3.4-2.3,4.1-3.3
	c0.7,0,1.5-0.3,2.1-0.5l9.8,8.2c0.2,0.1,0.3,0.3,0.3,0.4c0,0.1,0,0.1,0,0.2C35.2,18.6,34.9,19,34.8,19.2z M36.8,16.9
	c-0.2-0.3-0.4-0.7-0.8-1L25.8,7.4c-0.3-0.2-0.7-0.3-1-0.2c-0.8,0.3-1.8,0.6-2.1,0.5c-0.4-0.1-0.9,0-1.1,0.4c-0.5,0.9-2,2.7-3.1,2.9
	c-0.2,0-0.4,0-0.6-0.1c-0.4-0.3-0.5-1.2-0.3-2.3c0.5-2.3,2.6-4.9,6-5.4c0,0,2.6-0.6,8.7,2.7C32.5,6,32.8,6.1,33.1,6l1.6-0.5
	l3.1,11.3C37.5,17,37.1,17,36.8,16.9z M40.2,17.8L36.5,4.3l5.3-1.6l3.7,13.5L40.2,17.8z"/>
</svg>
