<?xml version="1.0" encoding="utf-8"?>
<!-- Generator: Adobe Illustrator 18.1.0, SVG Export Plug-In . SVG Version: 6.00 Build 0)  -->
<svg version="1.1" id="Layer_1" xmlns="http://www.w3.org/2000/svg" xmlns:xlink="http://www.w3.org/1999/xlink" x="0px" y="0px"
	 viewBox="0 0 31 42" enable-background="new 0 0 31 42" xml:space="preserve">
<path fill="#082F4F" d="M30.9,11.2C25-1,17.9,0,17.7,0h-6.3c-0.5,0-0.9,0.4-0.9,0.9c0,0.9,0,0.9-1,0.9H8.1c-1,0-1,0-1-0.9
	C7.1,0.4,6.7,0,6.2,0H2.8C1.2,0,0,1.3,0,3v4.4c0,1.7,1.3,3.1,2.8,3.1h3.4c0.5,0,0.9-0.4,0.9-0.9c0-0.9,0-0.9,1-0.9h1.4
	c1,0,1,0,1,0.9l-0.3,30c0,1.2,0.6,1.8,1.1,2.1c0.6,0.3,1.2,0.4,2,0.4l1.3,0l1.3,0c0.9,0,3.1,0,3.1-2.4L18.6,10
	c0.6-0.8,1.3-1.1,2.2-1.1c2.7,0,6.2,3.4,7.3,4.7c0.2,0.2,0.4,0.3,0.6,0.3c0,0,0,0,0,0c0.2,0,0.4-0.1,0.6-0.3l1.3-1.3
	C31,12,31.1,11.6,30.9,11.2z M15.9,40.3l-1.3,0l-1.3,0c-0.3,0-0.9,0-1.2-0.2c-0.1,0-0.2-0.1-0.2-0.5l0.3-29.1h4.6l0.3,29.1
	C17.3,40.1,17.3,40.3,15.9,40.3z M28.9,11.7c-1.4-1.4-4.8-4.6-8-4.6c-1.4,0-2.6,0.6-3.5,1.7h-5.2C11.8,7,10.4,7,9.5,7H8.1
	C7.3,7,5.8,7,5.4,8.8H2.8c-0.6,0-1.1-0.6-1.1-1.4V3c0-0.7,0.5-1.2,1.1-1.2h2.6c0.4,1.7,1.8,1.7,2.7,1.7h1.4c0.8,0,2.3,0,2.7-1.7
	l5.7,0c0,0,0.1,0,0.3,0c1.4,0,6.3,0.7,10.8,9.7L28.9,11.7z"/>
</svg>
