<?xml version="1.0" encoding="utf-8"?>
<!-- Generator: Adobe Illustrator 18.1.0, SVG Export Plug-In . SVG Version: 6.00 Build 0)  -->
<svg version="1.1" id="Layer_1" xmlns="http://www.w3.org/2000/svg" xmlns:xlink="http://www.w3.org/1999/xlink" x="0px" y="0px"
	 viewBox="0 0 36 48" enable-background="new 0 0 36 48" xml:space="preserve">
<g>
	<g>
		<linearGradient id="SVGID_1_" gradientUnits="userSpaceOnUse" x1="18" y1="48" x2="18" y2="9.094947e-013">
			<stop  offset="0" style="stop-color:#5CE1A1"/>
			<stop  offset="0.5" style="stop-color:#2FC1B7"/>
			<stop  offset="1" style="stop-color:#1E547E"/>
		</linearGradient>
		<path fill-rule="evenodd" clip-rule="evenodd" fill="url(#SVGID_1_)" d="M18,0C7.7,0,0,8.5,0,18.4c0,7,5.7,13.1,9.8,19.4
			C13.5,43.6,15.6,48,18,48c2.4,0,4.5-4.4,8.2-10.2c4.1-6.3,9.8-12.4,9.8-19.4C36,8.5,28.3,0,18,0z"/>
	</g>
</g>
<path fill-rule="evenodd" clip-rule="evenodd" fill="#FFFFFF" d="M18,3.6c8,0,14.4,6.4,14.4,14.4c0,8-6.4,14.4-14.4,14.4
	S3.6,26,3.6,18C3.6,10,10,3.6,18,3.6z"/>
<g>
	<polygon fill="#267896" points="9.6,25.2 9.6,13.2 18.3,8.5 24,11.6 	"/>
	<linearGradient id="SVGID_2_" gradientUnits="userSpaceOnUse" x1="17.9462" y1="8.6759" x2="17.5656" y2="16.5231">
		<stop  offset="0" style="stop-color:#247FA3"/>
		<stop  offset="1" style="stop-color:#1B6086"/>
	</linearGradient>
	<polyline fill="url(#SVGID_2_)" points="13.2,18.5 18.3,8.5 22,13.5 19.1,16.2 13.2,18.5 	"/>
	<polyline fill="#1E547E" points="18.3,8.5 22,13.5 24,11.6 18.3,8.5 	"/>
	<polyline fill="#1E547E" points="11.8,21.4 9.6,25.2 12.9,22.1 11.8,21.4 	"/>
	<polyline fill="#1E547E" points="11.8,21.4 9.6,13.2 13.2,18.5 11.8,21.4 	"/>
	<linearGradient id="SVGID_3_" gradientUnits="userSpaceOnUse" x1="11.364" y1="15.8835" x2="16.8608" y2="10.7565">
		<stop  offset="0" style="stop-color:#2E9AB5"/>
		<stop  offset="1" style="stop-color:#208CA2"/>
	</linearGradient>
	<polyline fill="url(#SVGID_3_)" points="13.2,18.5 18.3,8.5 9.6,13.2 13.2,18.5 	"/>
	<polygon fill="#68F0B3" points="27,25.2 17.3,25.2 11.8,21.4 13.2,18.5 27,13.2 	"/>
	<linearGradient id="SVGID_4_" gradientUnits="userSpaceOnUse" x1="22.2476" y1="24.9115" x2="25.9798" y2="12.9537">
		<stop  offset="0" style="stop-color:#5CE1A2"/>
		<stop  offset="1" style="stop-color:#21704B"/>
	</linearGradient>
	<polygon fill="url(#SVGID_4_)" points="27,13.2 17.3,25.2 27,25.2 	"/>
	<linearGradient id="SVGID_5_" gradientUnits="userSpaceOnUse" x1="22.0672" y1="24.6257" x2="17.0386" y2="14.5779">
		<stop  offset="0" style="stop-color:#5CBC89;stop-opacity:0"/>
		<stop  offset="1" style="stop-color:#1B9C79"/>
	</linearGradient>
	<polyline opacity="0.8" fill="url(#SVGID_5_)" points="13.2,18.5 17.3,25.2 27,25.2 27,22.8 22.8,14.8 	"/>
</g>
</svg>
