<?xml version="1.0" encoding="utf-8"?>
<!-- Generator: Adobe Illustrator 18.1.0, SVG Export Plug-In . SVG Version: 6.00 Build 0)  -->
<svg version="1.1" id="Layer_1" xmlns="http://www.w3.org/2000/svg" xmlns:xlink="http://www.w3.org/1999/xlink" x="0px" y="0px"
	 viewBox="0 0 7 11" enable-background="new 0 0 7 11" xml:space="preserve">
<path fill="#9c9c9c" d="M3.2,10.9c0,0,0.1,0.1,0.1,0.1c0.1,0,0.1,0,0.2,0c0.1,0,0.1,0,0.2,0c0.1,0,0.1-0.1,0.1-0.1l3-2.9
	C7,7.8,7,7.5,6.9,7.3c-0.2-0.2-0.5-0.2-0.6,0L4,9.5V0.4C4,0.2,3.8,0,3.5,0C3.2,0,3,0.2,3,0.4v9.1L0.8,7.3c-0.2-0.2-0.5-0.2-0.6,0
	C0,7.5,0,7.8,0.1,7.9L3.2,10.9z"/>
</svg>
