<?xml version="1.0" encoding="utf-8"?>
<!-- Generator: Adobe Illustrator 18.1.0, SVG Export Plug-In . SVG Version: 6.00 Build 0)  -->
<svg version="1.1" id="Layer_1" xmlns="http://www.w3.org/2000/svg" xmlns:xlink="http://www.w3.org/1999/xlink" x="0px" y="0px"
	 viewBox="0 0 7 11" enable-background="new 0 0 7 11" xml:space="preserve">
<path fill="#393939" d="M3.8,0.1c0,0-0.1-0.1-0.1-0.1C3.6,0,3.6,0,3.5,0C3.4,0,3.4,0,3.3,0c-0.1,0-0.1,0.1-0.1,0.1L0.1,3
	C0,3.2,0,3.5,0.1,3.7c0.2,0.2,0.5,0.2,0.6,0L3,1.5v9.1C3,10.8,3.2,11,3.5,11C3.8,11,4,10.8,4,10.6V1.5l2.3,2.2
	c0.2,0.2,0.5,0.2,0.6,0C7,3.5,7,3.2,6.9,3L3.8,0.1z"/>
</svg>
