<?xml version="1.0" encoding="utf-8"?>
<!-- Generator: Adobe Illustrator 18.1.0, SVG Export Plug-In . SVG Version: 6.00 Build 0)  -->
<svg version="1.1" id="Layer_1" xmlns="http://www.w3.org/2000/svg" xmlns:xlink="http://www.w3.org/1999/xlink" x="0px" y="0px"
	 viewBox="0 0 44 41" enable-background="new 0 0 44 41" xml:space="preserve">
<g>
	<polygon fill="none" points="317.9,-897.9 317.9,-897.9 323.1,-903 322.2,-903.9 317.1,-898.7 311.9,-903.9 311.1,-903 
		316.2,-897.9 316.2,-897.9 316.2,-897.9 311.1,-892.7 311.9,-891.9 317.1,-897 322.2,-891.9 323.1,-892.7 317.9,-897.9 	"/>
</g>
<g>
	<g>
		<path fill="#082F4F" d="M43.7,10.8c-0.2-0.2-0.4-0.3-0.6-0.3l-4.6,0V5.9c0-0.5-0.4-0.9-0.9-0.9h-4.5l0.2-1.8c0-0.2,0-0.5-0.2-0.7
			c-0.2-0.2-0.4-0.3-0.6-0.3L6.4,0C6.2,0,5.9,0.1,5.7,0.2C5.6,0.4,5.4,0.6,5.4,0.9L5.2,4.9H0.9C0.4,4.9,0,5.3,0,5.9v27.4
			c0,0.5,0.4,0.9,0.9,0.9h1.8l-0.5,3.6c0,0.2,0,0.5,0.2,0.7c0.2,0.2,0.4,0.3,0.6,0.3L29.1,41c0,0,0.1,0,0.1,0c0.5,0,0.9-0.4,0.9-0.8
			l0-0.5H43c0.5,0,0.9-0.4,0.9-0.9L44,11.5C44,11.2,43.9,11,43.7,10.8z M7.2,1.9l24.2,1.9l-0.1,1.1H7L7.2,1.9z M28.3,39.1l-24.2-2
			l0.4-2.9h24.2L28.3,39.1z M1.8,32.4V6.8H6c0,0,0,0,0,0c0,0,0.1,0,0.1,0h25.8c0,0,0,0,0,0c0,0,0.1,0,0.1,0c0,0,0.1,0,0.1,0h4.5
			v25.6H1.8z M42.1,37.9H30.3l0.3-3.6h7c0.5,0,0.9-0.4,0.9-0.9V12.4l3.7,0L42.1,37.9z M18.3,15.9c-0.3,0-0.4,0-3.7,1.5l0.4-3.5
			c0.1-0.4-0.1-0.8-0.3-1.1c-0.5-0.5-1.2-0.5-1.8-0.5c-3.6,0-6.7,2.7-7.1,6.3c-0.2,2,0.4,4.1,1.8,5.6c1.4,1.5,3.3,2.4,5.4,2.4
			c3.6,0,6.7-2.7,7.1-6.3c0.1-0.5,0.1-3-0.7-3.9C19.1,16.1,18.7,15.9,18.3,15.9z M18.3,20.1c-0.3,2.7-2.6,4.7-5.3,4.7
			c-1.5,0-3-0.7-4-1.8c-1-1.2-1.5-2.7-1.3-4.2c0.3-2.7,2.6-4.7,5.3-4.7c0.1,0,0.1,0,0.2,0l-0.6,4.7c0,0.3,0.1,0.6,0.4,0.8
			c0.3,0.2,0.6,0.2,0.9,0.1c1.8-0.8,3.6-1.6,4.2-1.9C18.2,18.3,18.3,19.4,18.3,20.1z M32,23.2h-7.3c-0.5,0-0.9,0.4-0.9,0.9
			c0,0.5,0.4,0.9,0.9,0.9H32c0.5,0,0.9-0.4,0.9-0.9C32.9,23.6,32.5,23.2,32,23.2z M32,17.7h-7.3c-0.5,0-0.9,0.4-0.9,0.9
			c0,0.5,0.4,0.9,0.9,0.9H32c0.5,0,0.9-0.4,0.9-0.9C32.9,18.2,32.5,17.7,32,17.7z M32,12.3h-7.3c-0.5,0-0.9,0.4-0.9,0.9
			c0,0.5,0.4,0.9,0.9,0.9H32c0.5,0,0.9-0.4,0.9-0.9C32.9,12.7,32.5,12.3,32,12.3z"/>
	</g>
</g>
</svg>
