<?xml version="1.0" encoding="utf-8"?>
<!-- Generator: Adobe Illustrator 18.1.0, SVG Export Plug-In . SVG Version: 6.00 Build 0)  -->
<svg version="1.1" id="Layer_1" xmlns="http://www.w3.org/2000/svg" xmlns:xlink="http://www.w3.org/1999/xlink" x="0px" y="0px"
	 viewBox="0 0 11 13" enable-background="new 0 0 11 13" xml:space="preserve">
<g>
	<g>
		<path fill="#393939" d="M2.8,10.2C3.1,10.1,2.8,10.2,2.8,10.2L2.8,10.2z M11,2.1C11,2,11,2,11,2c0-0.1-0.1-0.2-0.2-0.3L9.2,0.2
			C9.1,0.1,9,0,8.8,0H2.7C2.3,0,2,0.3,2,0.6v9.7C2,10.7,2.3,11,2.7,11h7.7c0.4,0,0.7-0.3,0.7-0.6V2.1C11,2.1,11,2.1,11,2.1
			C11,2.1,11,2.1,11,2.1z M10.2,10.2H2.8V0.8h5.7v2.4h1.6V10.2z M9.4,2.3V1.6l0.8,0.8H9.4z M8.7,8H4.3C4.1,8,4,8.2,4,8.5
			C4,8.8,4.1,9,4.3,9h4.4C8.9,9,9,8.8,9,8.5C9,8.2,8.9,8,8.7,8z M4,6.5C4,6.8,4.1,7,4.3,7h4.4C8.9,7,9,6.8,9,6.5C9,6.2,8.9,6,8.7,6
			H4.3C4.1,6,4,6.2,4,6.5z M4.2,5h2.5C6.9,5,7,4.8,7,4.5C7,4.2,6.9,4,6.8,4H4.2C4.1,4,4,4.2,4,4.5C4,4.8,4.1,5,4.2,5z M8.7,12.1
			c-0.2,0-0.3,0.1-0.5,0.1H0.8V2.8c0-0.2,0.2-0.3,0.2-0.5C0.9,2.1,0.8,2,0.6,2C0.3,2,0,2.3,0,2.6v9.7C0,12.7,0.3,13,0.6,13h7.7
			C8.7,13,9,12.7,9,12.3C9,12.2,8.9,12.1,8.7,12.1z"/>
	</g>
</g>
</svg>
