<?xml version="1.0" encoding="utf-8"?>
<!-- Generator: Adobe Illustrator 18.1.0, SVG Export Plug-In . SVG Version: 6.00 Build 0)  -->
<svg version="1.1" id="Layer_1" xmlns="http://www.w3.org/2000/svg" xmlns:xlink="http://www.w3.org/1999/xlink" x="0px" y="0px"
	 viewBox="0 0 19 19" enable-background="new 0 0 19 19" xml:space="preserve">
<g>
	<g>
		<path fill="#E62727" d="M9.5,0C4.3,0,0,4.3,0,9.5C0,14.7,4.3,19,9.5,19c5.2,0,9.5-4.3,9.5-9.5C19,4.3,14.7,0,9.5,0z M9.5,18
			C4.8,18,1,14.2,1,9.5S4.8,1,9.5,1S18,4.8,18,9.5S14.2,18,9.5,18z M9.5,11.8c-0.3,0-0.5,0.1-0.7,0.3c-0.2,0.2-0.3,0.4-0.3,0.7
			s0.1,0.5,0.3,0.7c0.2,0.2,0.4,0.3,0.7,0.3c0.3,0,0.5-0.1,0.7-0.3c0.2-0.2,0.3-0.4,0.3-0.7c0-0.3-0.1-0.5-0.3-0.7
			C10,11.8,9.8,11.8,9.5,11.8z M9.5,5.4C9.2,5.4,9,5.5,8.8,5.6C8.6,5.8,8.5,6.1,8.5,6.4c0,0.3,0.1,0.9,0.3,1.6l0.3,1.3
			c0.2,0.6,0.2,1.2,0.3,1.6h0.3c0.1-0.6,0.1-1.2,0.2-1.6L10.2,8c0.2-0.8,0.3-1.4,0.3-1.7c0-0.3-0.1-0.5-0.3-0.7
			C10,5.5,9.8,5.4,9.5,5.4z"/>
	</g>
</g>
</svg>
