<?xml version="1.0" encoding="utf-8"?>
<!-- Generator: Adobe Illustrator 18.1.0, SVG Export Plug-In . SVG Version: 6.00 Build 0)  -->
<svg version="1.1" id="Layer_1" xmlns="http://www.w3.org/2000/svg" xmlns:xlink="http://www.w3.org/1999/xlink" x="0px" y="0px"
	 viewBox="0 0 41 41" enable-background="new 0 0 41 41" xml:space="preserve">
<g>
	<g>
		<path fill="#082F4F" d="M38.3,17H17.7c-1.5,0-2.7,1.2-2.7,2.6v11.8c0,1.4,1.2,2.6,2.7,2.6h20.6c1.5,0,2.7-1.2,2.7-2.6V19.6
			C41,18.2,39.8,17,38.3,17z M39.3,31.4c0,0.5-0.4,0.9-1,0.9H17.7c-0.5,0-1-0.4-1-0.9V19.6c0-0.5,0.4-0.9,1-0.9h20.6
			c0.5,0,1,0.4,1,0.9V31.4z M9.3,11.9c2.2,0,4.1-1.8,4.1-4.1c0-1.5-1.3-7.8-4-7.8C6.6,0,5.3,6.3,5.3,7.8C5.3,10,7.1,11.9,9.3,11.9z
			 M9.4,1.7c0.8,0,2.3,4,2.3,6.1c0,1.3-1.1,2.3-2.3,2.3C8,10.2,7,9.1,7,7.8C7,5.8,8.6,1.7,9.4,1.7z M31.6,36c-0.5,0-0.9,0.4-0.9,0.9
			v1.9c0,0.3-0.2,0.5-0.5,0.5h-28c-0.3,0-0.5-0.2-0.5-0.5V2.2c0-0.3,0.2-0.5,0.5-0.5h1.9C4.6,1.7,5,1.3,5,0.9C5,0.4,4.6,0,4.1,0H2.2
			C1,0,0,1,0,2.2v36.5C0,40,1,41,2.2,41h28c1.2,0,2.2-1,2.2-2.2v-1.9C32.4,36.4,32,36,31.6,36z M14.6,1.7h9l0,5.9
			c0,0.5,0.4,0.9,0.9,0.9h6.2v5.8c0,0.5,0.4,0.9,0.9,0.9c0.5,0,0.9-0.4,0.9-0.9V7.7c0-0.7-0.4-1.1-0.7-1.4L26,0.6
			c-0.4-0.4-1-0.6-1.6-0.6h-9.8c-0.5,0-0.9,0.4-0.9,0.9C13.8,1.3,14.2,1.7,14.6,1.7z M29.9,6.8h-4.5l0-4.4L29.9,6.8z M9.3,8.5
			c0.2,0,0.4-0.1,0.6-0.3c0.2-0.2,0.3-0.4,0.3-0.6c0-0.2-0.1-0.4-0.3-0.6C9.6,6.7,9,6.7,8.7,7.1C8.6,7.2,8.5,7.4,8.5,7.7
			c0,0.2,0.1,0.4,0.2,0.6C8.9,8.4,9.1,8.5,9.3,8.5z M28,22.2c-0.5,0-0.9,0.4-0.9,0.9v5.1c0,0.5,0.4,0.9,0.9,0.9
			c0.5,0,0.9-0.4,0.9-0.9V23C28.9,22.6,28.5,22.2,28,22.2z M25,27.3h-2l2.7-3.7c0.2-0.3,0.2-0.6,0.1-0.9c-0.1-0.3-0.4-0.5-0.8-0.5
			h-3.5c-0.5,0-0.9,0.4-0.9,0.9c0,0.5,0.4,0.9,0.9,0.9h1.8l-2.7,3.7c-0.2,0.3-0.2,0.6-0.1,0.9c0.1,0.3,0.4,0.5,0.8,0.5H25
			c0.5,0,0.9-0.4,0.9-0.9C25.8,27.7,25.4,27.3,25,27.3z M33.6,22.2h-1.9c-0.5,0-0.9,0.4-0.9,0.9v2.8c0,0,0,0,0,0v2.3
			c0,0.5,0.4,0.9,0.9,0.9c0.5,0,0.9-0.4,0.9-0.9v-1.5l1.1,0c1,0,2.5-0.6,2.5-2.3c0-0.6-0.2-1.1-0.6-1.5
			C34.8,22.2,33.7,22.2,33.6,22.2z M33.6,24.9l-1.1,0v-1h1.1c0.2,0,0.5,0.1,0.7,0.2c0,0,0.1,0.1,0.1,0.3
			C34.4,24.9,33.9,24.9,33.6,24.9z M10.2,14.6c0-0.5-0.4-0.9-0.9-0.9c-0.5,0-0.9,0.4-0.9,0.9v1.7c0,0.5,0.4,0.9,0.9,0.9
			c0.5,0,0.9-0.4,0.9-0.9V14.6z M10.2,19.7c0-0.5-0.4-0.9-0.9-0.9c-0.5,0-0.9,0.4-0.9,0.9v1.7c0,0.5,0.4,0.9,0.9,0.9
			c0.5,0,0.9-0.4,0.9-0.9V19.7z M9.3,24c-0.5,0-0.9,0.4-0.9,0.9v1.7c0,0.5,0.4,0.9,0.9,0.9c0.5,0,0.9-0.4,0.9-0.9v-1.7
			C10.2,24.4,9.8,24,9.3,24z"/>
	</g>
</g>
</svg>
