<?xml version="1.0" encoding="utf-8"?>
<!-- Generator: Adobe Illustrator 18.1.0, SVG Export Plug-In . SVG Version: 6.00 Build 0)  -->
<svg version="1.1" id="Layer_1" xmlns="http://www.w3.org/2000/svg" xmlns:xlink="http://www.w3.org/1999/xlink" x="0px" y="0px"
	 viewBox="0 0 85 78" enable-background="new 0 0 85 78" xml:space="preserve">
<g>
	<g>
		<path fill="#9C9C9C" d="M83.2,11.1H19.8l-2-9.7C17.6,0.6,16.9,0,16,0H1.8C0.8,0,0,0.8,0,1.9c0,1,0.8,1.9,1.8,1.9h12.7L23.7,47
			c0.2,0.9,0.9,1.5,1.8,1.5H73c1,0,1.8-0.8,1.8-1.9c0-1-0.8-1.9-1.8-1.9H27l-1.6-7.5h51c1,0,1.8-0.8,1.8-1.9c0-1-0.8-1.9-1.8-1.9
			H24.6L23,26.1h56.8c1,0,1.8-0.8,1.8-1.9c0-1-0.8-1.9-1.8-1.9H22.2l-1.6-7.5h62.5c1,0,1.8-0.8,1.8-1.9C85,12,84.2,11.1,83.2,11.1z
			 M29.1,59.7c-5,0-9,4.1-9,9.2c0,5.1,4,9.2,9,9.2c4.9,0,9-4.1,9-9.2C38,63.8,34,59.7,29.1,59.7z M29.1,74.3c-2.9,0-5.3-2.4-5.3-5.4
			s2.4-5.4,5.3-5.4c2.9,0,5.3,2.4,5.3,5.4S32,74.3,29.1,74.3z M65.4,59.7c-5,0-9,4.1-9,9.2c0,5.1,4,9.2,9,9.2c4.9,0,9-4.1,9-9.2
			C74.4,63.8,70.4,59.7,65.4,59.7z M65.4,74.3c-2.9,0-5.3-2.4-5.3-5.4s2.4-5.4,5.3-5.4c2.9,0,5.3,2.4,5.3,5.4S68.4,74.3,65.4,74.3z"
			/>
	</g>
</g>
</svg>
