<?xml version="1.0" encoding="utf-8"?>
<!-- Generator: Adobe Illustrator 18.1.0, SVG Export Plug-In . SVG Version: 6.00 Build 0)  -->
<svg version="1.1" id="Layer_1" xmlns="http://www.w3.org/2000/svg" xmlns:xlink="http://www.w3.org/1999/xlink" x="0px" y="0px"
	 viewBox="0 0 12 12" enable-background="new 0 0 12 12" xml:space="preserve">
<g>
	<polygon fill="none" points="301.9,-915 301.9,-915 307,-920.1 306.1,-921 301,-915.9 295.9,-921 295,-920.1 300.1,-915 
		300.1,-915 300.1,-915 295,-909.9 295.9,-909 301,-914.1 306.1,-909 307,-909.9 301.9,-915 	"/>
</g>
<g>
	<g>
		<polygon fill-rule="evenodd" clip-rule="evenodd" fill="#9e9e9e" points="6.9,6 6.9,6 12,0.9 11.1,0 6,5.1 0.9,0 0,0.9 5.1,6 
			5.1,6 5.1,6 0,11.1 0.9,12 6,6.9 11.1,12 12,11.1 6.9,6 		"/>
	</g>
</g>
</svg>
