<?xml version="1.0" encoding="utf-8"?>
<!-- Generator: Adobe Illustrator 18.1.0, SVG Export Plug-In . SVG Version: 6.00 Build 0)  -->
<svg version="1.1" id="Layer_1" xmlns="http://www.w3.org/2000/svg" xmlns:xlink="http://www.w3.org/1999/xlink" x="0px" y="0px"
	 viewBox="0 0 17 17" enable-background="new 0 0 17 17" xml:space="preserve">
<g>
	<g>
		<path fill="#9C9C9C" d="M8.5,0C3.8,0,0,3.8,0,8.5C0,13.2,3.8,17,8.5,17c4.7,0,8.5-3.8,8.5-8.5C17,3.8,13.2,0,8.5,0z M8.5,16
			C4.4,16,1,12.6,1,8.5S4.4,1,8.5,1S16,4.4,16,8.5S12.6,16,8.5,16z M9.6,6.8L7.3,7.2v0.3c0.3-0.1,0.5-0.1,0.6-0.1
			c0.1,0,0.2,0,0.3,0.1c0.1,0.1,0.1,0.1,0.1,0.2c0,0.1-0.1,0.4-0.2,0.9l-0.9,3.1C7.1,12.1,7,12.4,7,12.6c0,0.2,0.1,0.3,0.2,0.4
			c0.1,0.1,0.3,0.2,0.5,0.2c0.3,0,0.6-0.1,0.9-0.4c0.4-0.3,0.8-0.7,1.1-1.2l-0.2-0.2c-0.3,0.4-0.5,0.7-0.8,0.9
			c-0.1,0.1-0.2,0.1-0.2,0.1c-0.1,0-0.1,0-0.2-0.1c0,0-0.1-0.1-0.1-0.2c0-0.1,0-0.3,0.1-0.6L9.6,6.8z M9.5,4.1
			C9.3,4.1,9.2,4.2,9,4.3C8.9,4.4,8.8,4.6,8.8,4.8C8.8,5,8.9,5.1,9,5.3c0.1,0.1,0.3,0.2,0.5,0.2c0.2,0,0.3-0.1,0.5-0.2
			c0.1-0.1,0.2-0.3,0.2-0.5c0-0.2-0.1-0.4-0.2-0.5C9.9,4.2,9.7,4.1,9.5,4.1z"/>
	</g>
</g>
</svg>
