<?xml version="1.0" encoding="utf-8"?>
<!-- Generator: Adobe Illustrator 18.1.0, SVG Export Plug-In . SVG Version: 6.00 Build 0)  -->
<svg version="1.1" id="Layer_1" xmlns="http://www.w3.org/2000/svg" xmlns:xlink="http://www.w3.org/1999/xlink" x="0px" y="0px"
	 viewBox="0 0 24 23" enable-background="new 0 0 24 23" xml:space="preserve">
<g>
	<g>
		<path fill="#082F4F" d="M23.6,3.3L12.1,0C12,0,12,0,11.9,0L0.4,3.3C0.1,3.4,0,3.6,0,3.8v18.7C0,22.8,0.2,23,0.5,23h2
			C2.8,23,3,22.8,3,22.5V7.9h18v14.6c0,0.3,0.2,0.5,0.5,0.5h2c0.3,0,0.5-0.2,0.5-0.5V3.8C24,3.6,23.9,3.4,23.6,3.3z M23,22h-1V7.4
			c0-0.3-0.2-0.5-0.5-0.5h-19C2.2,6.9,2,7.1,2,7.4V22H1V4.2L12,1l11,3.2V22z M18.5,14H15v-3.5c0-0.3-0.2-0.5-0.5-0.5h-4
			c-0.3,0-0.5,0.2-0.5,0.5V18H6.5C6.2,18,6,18.2,6,18.5v4C6,22.8,6.2,23,6.5,23h12c0.3,0,0.5-0.2,0.5-0.5v-8.1
			C19,14.2,18.8,14,18.5,14z M10,22H7v-3h3V22z M14,22h-3v-3h3V22z M14,18h-3v-3h3V18z M14,14h-3v-3h3V14z M18,22h-3v-3h3V22z
			 M18,18h-3v-3h3V18z M10,5.4c0,0.3,0.2,0.5,0.5,0.5h3c0.3,0,0.5-0.2,0.5-0.5c0-0.3-0.2-0.5-0.5-0.5h-3C10.2,4.9,10,5.1,10,5.4z
			 M8.6,4.9h-3c-0.3,0-0.5,0.2-0.5,0.5c0,0.3,0.2,0.5,0.5,0.5h3c0.3,0,0.5-0.2,0.5-0.5C9.1,5.1,8.9,4.9,8.6,4.9z M15.4,5.9h3
			c0.3,0,0.5-0.2,0.5-0.5c0-0.3-0.2-0.5-0.5-0.5h-3c-0.3,0-0.5,0.2-0.5,0.5C14.9,5.7,15.1,5.9,15.4,5.9z"/>
	</g>
</g>
</svg>
