<?xml version="1.0" encoding="utf-8"?>
<!-- Generator: Adobe Illustrator 18.1.0, SVG Export Plug-In . SVG Version: 6.00 Build 0)  -->
<svg version="1.1" id="Layer_1" xmlns="http://www.w3.org/2000/svg" xmlns:xlink="http://www.w3.org/1999/xlink" x="0px" y="0px"
	 viewBox="0 0 36 44" enable-background="new 0 0 36 44" xml:space="preserve">
<path fill="#082F4F" d="M32,17.9V14c0-7.7-6.3-14-14-14C10.3,0,4,6.3,4,14v3.9c-2.2,0.1-4,1.7-4,3.7v8.6c0,2,1.9,3.7,4.3,3.7H7
	c0.6,0,1-0.4,1-1v-14c0-0.6-0.4-1-1-1H6V14C6,7.4,11.4,2,18,2c6.6,0,12,5.4,12,12v3.8h-1c-0.6,0-1,0.4-1,1v14c0,0.6,0.4,1,1,1h2.7
	c0.2,0,0.3,0,0.5,0c-0.6,4.6-3.1,6.4-9.1,6.8c-0.4-0.7-1.1-1.2-2-1.2h-2.9c-1.3,0-2.3,1-2.3,2.3c0,1.3,1,2.3,2.3,2.3h2.9
	c1,0,1.8-0.6,2.1-1.4c6.3-0.3,10.5-2.2,11-9.5c1-0.7,1.7-1.7,1.7-2.9v-8.6C36,19.6,34.2,18,32,17.9z M6,31.8H4.3C3,31.8,2,31,2,30.1
	v-8.6c0-0.9,1-1.7,2.3-1.7H6V31.8z M21.1,42h-2.9c-0.2,0-0.3-0.1-0.3-0.3c0-0.2,0.1-0.3,0.3-0.3h2.9c0.2,0,0.3,0.2,0.3,0.3
	C21.4,41.9,21.3,42,21.1,42z M30,31.8v-12h1.7c1.2,0,2.3,0.8,2.3,1.7v8.6c0,0.9-1,1.7-2.3,1.7H30z"/>
</svg>
