<?xml version="1.0" encoding="utf-8"?>
<!-- Generator: Adobe Illustrator 18.1.0, SVG Export Plug-In . SVG Version: 6.00 Build 0)  -->
<svg version="1.1" id="Layer_1" xmlns="http://www.w3.org/2000/svg" xmlns:xlink="http://www.w3.org/1999/xlink" x="0px" y="0px"
	 viewBox="0 0 50 50" enable-background="new 0 0 50 50" xml:space="preserve">
<g>
	<g>
		<path fill="#082F4F" d="M49.6,12.5L34.3,0.2C34.2,0.1,33.9,0,33.7,0H16.3c-0.2,0-0.4,0.1-0.6,0.2L0.4,12.5
			c-0.4,0.3-0.5,0.9-0.2,1.3l24,35.7c0.2,0.3,0.5,0.4,0.8,0.4c0.3,0,0.6-0.2,0.8-0.4l24-35.7C50.1,13.5,50,12.9,49.6,12.5z
			 M24.3,8.9l7.5,6.7H18.5L24.3,8.9z M32.8,17.6l-8,27.4l-7.2-27.4H32.8z M35,15.6h-0.2l-8.4-7.4l9.7-3.9L47,13L35,15.6z M16.1,15.3
			L3.2,12.8l10.5-8.5l8.6,3.8L16.1,15.3z M15.5,17.3l6.8,26l-19-28.3L15.5,17.3z M34.9,17.6h0.3c0.1,0,0.1,0,0.2,0l11.2-2.4L27.2,44
			L34.9,17.6z M16.6,2h16.7l1,0.8l-9.2,3.6h-1.6l-8.1-3.5L16.6,2z"/>
	</g>
</g>
</svg>
