<?xml version="1.0" encoding="utf-8"?>
<!-- Generator: Adobe Illustrator 18.1.0, SVG Export Plug-In . SVG Version: 6.00 Build 0)  -->
<svg version="1.1" id="Layer_1" xmlns="http://www.w3.org/2000/svg" xmlns:xlink="http://www.w3.org/1999/xlink" x="0px" y="0px"
	 viewBox="0 0 30 30" enable-background="new 0 0 30 30" xml:space="preserve">
<path fill-rule="evenodd" clip-rule="evenodd" fill="#9E6F4F" d="M15,0c8.3,0,15,6.7,15,15s-6.7,15-15,15S0,23.3,0,15S6.7,0,15,0z"
	/>
<path fill-rule="evenodd" clip-rule="evenodd" fill="#FFFFFF" d="M15,13c-1.7,0-3,1.3-3,3s1.3,3,3,3s3-1.3,3-3S16.7,13,15,13z
	 M15,18c-1.1,0-2-0.9-2-2s0.9-2,2-2s2,0.9,2,2S16.1,18,15,18z"/>
<path fill-rule="evenodd" clip-rule="evenodd" fill="#FFFFFF" d="M9,7h12c1.1,0,2,0.9,2,2v2.7c0,1.1-0.7,2-0.7,2H7.8
	c0,0-0.8-0.9-0.8-2V9C7,7.9,7.9,7,9,7z"/>
<path fill-rule="evenodd" clip-rule="evenodd" fill="#9E6F4F" d="M20.5,9c0.8,0,1.5,0.7,1.5,1.5S21.3,12,20.5,12S19,11.3,19,10.5
	S19.7,9,20.5,9z"/>
<path fill-rule="evenodd" clip-rule="evenodd" fill="#FFFFFF" d="M21.1,7h-12C7.9,8,7,8.9,7,10v11c0,1.1,0.9,2,2,2h12
	c1.1,0,2-0.9,2-2V10C23,8.9,22.1,8,21.1,7z M22,21c0,0.5-0.4,1-1,1H9c-0.5,0-1-0.4-1-1V11c0-1.1,0.1-2,1.3-3.2l11.8,0.1
	c1,1.1,0.9,2,0.9,3.1V21z"/>
</svg>
