<?xml version="1.0" encoding="utf-8"?>
<!-- Generator: Adobe Illustrator 18.1.0, SVG Export Plug-In . SVG Version: 6.00 Build 0)  -->
<svg version="1.1" xmlns="http://www.w3.org/2000/svg" xmlns:xlink="http://www.w3.org/1999/xlink" x="0px" y="0px"
	 viewBox="0 0 440 93" enable-background="new 0 0 440 93" xml:space="preserve">
<g id="лого">
	<g>
		<polygon fill="#267896" points="0,88.4 0,24.8 45.7,0 75.8,16.4 		"/>
		<linearGradient id="SVGID_1_" gradientUnits="userSpaceOnUse" x1="43.8561" y1="1.0681" x2="41.8493" y2="42.4434">
			<stop  offset="0" style="stop-color:#247FA3"/>
			<stop  offset="1" style="stop-color:#1B6086"/>
		</linearGradient>
		<polyline fill="url(#SVGID_1_)" points="18.8,52.9 45.7,0 65.2,26.4 50.1,40.8 18.8,52.9 		"/>
		<polyline fill="#1E547E" points="45.7,0 65.2,26.4 75.8,16.4 45.7,0 		"/>
		<polyline fill="#1E547E" points="11.3,67.9 0,88.4 17.2,72.1 11.3,67.9 		"/>
		<polyline fill="#1E547E" points="11.3,67.9 0,24.8 18.8,52.9 11.3,67.9 		"/>
		<linearGradient id="SVGID_2_" gradientUnits="userSpaceOnUse" x1="9.1502" y1="39.0708" x2="38.1331" y2="12.0385">
			<stop  offset="0" style="stop-color:#2E9AB5"/>
			<stop  offset="1" style="stop-color:#208CA2"/>
		</linearGradient>
		<polyline fill="url(#SVGID_2_)" points="18.8,52.9 45.7,0 0,24.8 18.8,52.9 		"/>
		<polygon fill="#68F0B3" points="91.5,88.1 40.7,88.1 11.3,67.9 18.8,52.9 91.5,24.8 		"/>
		<linearGradient id="SVGID_3_" gradientUnits="userSpaceOnUse" x1="66.5354" y1="86.6723" x2="86.2139" y2="23.6231">
			<stop  offset="0" style="stop-color:#5CE1A2"/>
			<stop  offset="1" style="stop-color:#21704B"/>
		</linearGradient>
		<polygon fill="url(#SVGID_3_)" points="91.5,24.8 40.7,88.1 91.5,88.1 		"/>
		<linearGradient id="SVGID_4_" gradientUnits="userSpaceOnUse" x1="65.5841" y1="85.1655" x2="39.0705" y2="32.1872">
			<stop  offset="0" style="stop-color:#5CBC89;stop-opacity:0"/>
			<stop  offset="1" style="stop-color:#1B9C79"/>
		</linearGradient>
		<polyline opacity="0.8" fill="url(#SVGID_4_)" points="18.8,52.9 40.7,88.1 91.5,88.1 91.5,75.7 69.4,33.4 		"/>
	</g>
</g>
<g id="текст">
	<defs>
		<path id="SVGID_5_" d="M108.6,85.8h2.3c2.2-3.4,3.4-9,3.4-16.3v-3.9h14.7v20.2h2.9l-0.4,7.3h-2.1v-5h-18.3l-0.5,5h-2.2V85.8z
			 M126.6,85.8V67.9h-9.8v2.9c0,5.8-1.1,11.9-3,15H126.6z M134.8,76.9c0-6.2,4.7-11.6,11.5-11.6s11.5,5.4,11.5,11.6
			c0,6.2-4.7,11.6-11.5,11.6S134.8,83.2,134.8,76.9z M155.1,76.9c0-5.1-3.7-9.3-8.9-9.3s-8.8,4.1-8.8,9.3c0,5.1,3.7,9.3,8.9,9.3
			S155.1,82.1,155.1,76.9z M163.1,65.6h2.6l8.2,12.3l8.2-12.3h2.6v22.5h-2.5V69.9L173.9,82h-0.1l-8.2-12v18.2h-2.5V65.6z"/>
	</defs>
	<linearGradient id="SVGID_6_" gradientUnits="userSpaceOnUse" x1="102.5705" y1="79.1941" x2="202.4513" y2="79.1941">
		<stop  offset="0" style="stop-color:#5CE1A1"/>
		<stop  offset="0.157" style="stop-color:#4AB897"/>
		<stop  offset="0.3247" style="stop-color:#3A948E"/>
		<stop  offset="0.4939" style="stop-color:#2E7887"/>
		<stop  offset="0.663" style="stop-color:#256482"/>
		<stop  offset="0.8317" style="stop-color:#20587F"/>
		<stop  offset="1" style="stop-color:#1E547E"/>
	</linearGradient>
	<use xlink:href="#SVGID_5_"  overflow="visible" fill="url(#SVGID_6_)"/>
	<clipPath id="SVGID_7_">
		<use xlink:href="#SVGID_5_"  overflow="visible"/>
	</clipPath>
</g>
<g id="текст_копия_2">
	<defs>
		<path id="SVGID_8_" d="M110.9,25.7h2.5v13.5l12.9-13.5h3.3l-9.7,9.8l10.1,12.7h-3.2l-8.7-10.9l-4.8,4.9v6h-2.5V25.7z M133,36.9
			c0-6.2,4.7-11.6,11.5-11.6S156,30.6,156,36.9c0,6.2-4.7,11.6-11.5,11.6S133,43.2,133,36.9z M153.4,36.9c0-5.1-3.7-9.3-8.9-9.3
			s-8.8,4.1-8.8,9.3c0,5.1,3.7,9.3,8.9,9.3S153.4,42.1,153.4,36.9z M161.4,25.7h2.5v10h13v-10h2.5v22.5h-2.5V38h-13v10.1h-2.5V25.7z
			 M204.2,48.2h-18.4V25.7h2.5v20.2h12.9V25.7h2.5v20.2h2.9l-0.4,7.3h-2.1V48.2z M210.5,25.7h16.3V28H213v7.7h12.3V38H213v7.9h13.9
			v2.3h-16.4V25.7z M232,25.7h17.8v22.5h-2.5V28h-12.7v20.2H232V25.7z M262.1,28h-7.6v-2.3h17.7V28h-7.6v20.2h-2.6V28z M276.5,47.6
			l1-2c0.9,0.5,1.7,0.7,2.9,0.7c1.5,0,3.2-0.9,4.5-3.4L275,25.7h2.9l8.3,14.7l7.2-14.7h2.8l-8.9,17.8c-1.8,3.7-4.2,5.1-6.9,5.1
			C278.9,48.6,277.7,48.2,276.5,47.6z M308.8,25.5h2.4l10.3,22.7h-2.7l-2.6-6h-12.3l-2.7,6h-2.6L308.8,25.5z M315.1,39.9L310,28.5
			l-5.1,11.5H315.1z M322.6,47.9l0.5-2.1c0.4,0.2,1.3,0.3,2,0.3c1.7,0,4.7-1.1,4.7-16.4v-4.1h14.6v22.5h-2.5V28h-9.6v2.4
			c0,15.8-3.2,18-6.7,18C324.5,48.4,323.1,48.1,322.6,47.9z M350.7,25.7h2.5v8.7h5.7c4.8,0,8.8,1.9,8.8,6.6c0,4.4-3.3,7.2-8.4,7.2
			h-8.6V25.7z M359.3,45.9c3.6,0,5.9-1.6,5.9-4.8c0-2.9-2.3-4.4-6-4.4h-5.9v9.2H359.3z M372.3,25.7h2.5v10h13v-10h2.5v22.5h-2.5V38
			h-13v10.1h-2.5V25.7z M396.8,25.7h2.5v8.7h5.7c4.8,0,8.8,1.9,8.8,6.6c0,4.4-3.3,7.2-8.4,7.2h-8.6V25.7z M405.3,45.9
			c3.6,0,5.9-1.6,5.9-4.8c0-2.9-2.3-4.4-6-4.4h-5.9v9.2H405.3z M416.7,25.7h2.5v22.5h-2.5V25.7z M425.6,25.7h2.5v18.7l13.5-18.7h2.4
			v22.5h-2.5V29.5l-13.4,18.7h-2.5V25.7z M430.4,19.8l1.7-0.4c0.4,1.4,1.3,2.3,2.9,2.3c1.6,0,2.5-0.9,2.9-2.3l1.7,0.4
			c-0.4,2.3-2.2,4-4.6,4C432.5,23.8,430.7,22.1,430.4,19.8z"/>
	</defs>
	<linearGradient id="SVGID_9_" gradientUnits="userSpaceOnUse" x1="110.8834" y1="36.3362" x2="443.9957" y2="36.3362">
		<stop  offset="0" style="stop-color:#5CE1A1"/>
		<stop  offset="0.157" style="stop-color:#4AB897"/>
		<stop  offset="0.3247" style="stop-color:#3A948E"/>
		<stop  offset="0.4939" style="stop-color:#2E7887"/>
		<stop  offset="0.663" style="stop-color:#256482"/>
		<stop  offset="0.8317" style="stop-color:#20587F"/>
		<stop  offset="1" style="stop-color:#1E547E"/>
	</linearGradient>
	<use xlink:href="#SVGID_8_"  overflow="visible" fill="url(#SVGID_9_)"/>
	<clipPath id="SVGID_10_">
		<use xlink:href="#SVGID_8_"  overflow="visible"/>
	</clipPath>
</g>
</svg>
