<?xml version="1.0" encoding="utf-8"?>
<!-- Generator: Adobe Illustrator 18.1.0, SVG Export Plug-In . SVG Version: 6.00 Build 0)  -->
<svg version="1.1" id="Layer_1" xmlns="http://www.w3.org/2000/svg" xmlns:xlink="http://www.w3.org/1999/xlink" x="0px" y="0px"
	 viewBox="0 0 51 51" enable-background="new 0 0 51 51" xml:space="preserve">
<g>
	<g>
		<path fill="#082F4F" d="M41.7,24.5c-0.4-0.2-0.9-0.1-1.2,0.2L24.7,40.6c-0.3,0.3-0.4,0.8-0.2,1.2c0.2,0.4,0.6,0.7,1,0.7h15.8
			c0.6,0,1.1-0.5,1.1-1.1V25.5C42.4,25.1,42.1,24.7,41.7,24.5z M40.2,40.3H28.1l12.2-12.2V40.3z M50.3,0.1c-0.4-0.2-0.9-0.1-1.2,0.2
			L0.3,49.2c-0.3,0.3-0.4,0.8-0.2,1.2c0.2,0.4,0.6,0.7,1,0.7h48.8c0.6,0,1.1-0.5,1.1-1.1V1.1C51,0.6,50.7,0.2,50.3,0.1z M48.8,48.8
			H3.7l9.7-9.7l3.8,3.8c0.2,0.2,0.5,0.3,0.8,0.3c0.3,0,0.6-0.1,0.8-0.3c0.4-0.4,0.4-1.1,0-1.5l-3.8-3.8l2.5-2.5l1.7,1.7
			c0.2,0.2,0.5,0.3,0.8,0.3c0.3,0,0.6-0.1,0.8-0.3c0.4-0.4,0.4-1.1,0-1.5l-1.7-1.7l2.5-2.5l3.8,3.8c0.2,0.2,0.5,0.3,0.8,0.3
			c0.3,0,0.6-0.1,0.8-0.3c0.4-0.4,0.4-1.1,0-1.5l-3.8-3.8l2.5-2.5l1.8,1.8c0.2,0.2,0.5,0.3,0.8,0.3c0.3,0,0.6-0.1,0.8-0.3
			c0.4-0.4,0.4-1.1,0-1.5l-1.8-1.8l2.5-2.5l3.9,3.8c0.2,0.2,0.5,0.3,0.8,0.3c0.3,0,0.6-0.1,0.8-0.3c0.4-0.4,0.4-1.1,0-1.5l-3.9-3.8
			l2.5-2.5l1.8,1.8c0.2,0.2,0.5,0.3,0.8,0.3c0.3,0,0.6-0.1,0.8-0.3c0.4-0.4,0.4-1.1,0-1.5L35,17.5l2.5-2.5l3.9,3.9
			c0.2,0.2,0.5,0.3,0.8,0.3c0.3,0,0.6-0.1,0.8-0.3c0.4-0.4,0.4-1.1,0-1.5L39,13.5l9.8-9.9V48.8z"/>
	</g>
</g>
</svg>
