<?xml version="1.0" encoding="utf-8"?>
<!-- Generator: Adobe Illustrator 18.1.0, SVG Export Plug-In . SVG Version: 6.00 Build 0)  -->
<svg version="1.1" id="Слой_1" xmlns="http://www.w3.org/2000/svg" xmlns:xlink="http://www.w3.org/1999/xlink" x="0px" y="0px"
	 viewBox="0 0 377.6 145.1" enable-background="new 0 0 377.6 145.1" xml:space="preserve">
<g>
	<g>
		<linearGradient id="SVGID_1_" gradientUnits="userSpaceOnUse" x1="-1.594034e-005" y1="72.6" x2="377.5959" y2="72.6">
			<stop  offset="0" style="stop-color:#5ce1a1"/>
			<stop  offset="1" style="stop-color:#1e547e"/>
		</linearGradient>
		<path fill="url(#SVGID_1_)" d="M97.4,2.6H61.2L0,80v32.8h58.6v29.8h38.8v-29.8h16.2V81.2H97.4V2.6z M60.4,81.2H28.8L60.4,42V81.2z
			 M245.1,45.7c-1.1-5.1-2.8-10.2-5.1-15.3c-2.3-5.1-5.4-9.8-9.4-14.2c-3.3-3.6-6.8-6.5-10.4-8.6c-3.6-2.1-7.2-3.8-10.8-4.9
			c-3.6-1.1-7.1-1.9-10.4-2.2c-3.3-0.3-6.4-0.5-9.2-0.5c-5.6,0-10.6,0.5-15,1.6c-4.4,1.1-8.3,2.4-11.6,4c-3.3,1.6-6.2,3.4-8.6,5.3
			c-2.4,1.9-4.4,3.7-6,5.3c-5.3,5.6-9.6,13.1-12.8,22.4c-3.2,9.3-4.8,20.6-4.8,33.8c0,13.6,1.7,25.1,5.1,34.5
			c3.4,9.4,7.7,16.9,12.9,22.5c5.7,6.3,12.1,10.5,19.1,12.6c7,2.1,14.2,3.2,21.7,3.2c3.1,0,6.3-0.2,9.6-0.5
			c3.3-0.3,6.7-1.1,10.1-2.2c3.4-1.1,6.8-2.7,10.1-4.7c3.3-2,6.6-4.6,9.8-7.8c3.9-4,7-8.3,9.4-13c2.4-4.7,4.2-9.5,5.5-14.5
			c1.3-5,2.1-10,2.5-15.1c0.4-5.1,0.6-10.1,0.6-15c0-3.3-0.1-7.3-0.3-12C246.9,55.7,246.2,50.8,245.1,45.7z M206.6,97.2
			c-1.5,6-3.5,10.3-6.2,13c-1.5,1.5-3.1,2.6-5,3.5c-1.9,0.9-3.9,1.3-6.2,1.3c-2.7,0-5-0.5-6.9-1.4c-1.9-0.9-3.6-2.1-4.9-3.6
			c-1.1-1.2-2.1-2.7-3-4.5c-0.9-1.8-1.8-4.2-2.5-7.2c-0.7-3-1.3-6.7-1.7-11.1c-0.4-4.4-0.6-9.7-0.6-15.8c0-10.1,0.7-17.8,2-23
			c1.3-5.2,3.2-9.3,5.6-12.2c1.5-1.7,3.1-3.2,5-4.3c1.9-1.1,4.2-1.7,7-1.7c4.3,0,7.9,1.6,11,4.8c3.1,3.2,5.3,7.8,6.6,13.7
			c1.3,5.9,2,13.7,2,23.3C208.8,82.8,208.1,91.2,206.6,97.2z M361.4,81.2V2.6h-36.2L264,80v32.8h58.6v29.8h38.8v-29.8h16.2V81.2
			H361.4z M324.4,81.2h-31.6L324.4,42V81.2z"/>
	</g>
</g>
</svg>
