<?xml version="1.0" encoding="utf-8"?>
<!-- Generator: Adobe Illustrator 18.1.0, SVG Export Plug-In . SVG Version: 6.00 Build 0)  -->
<svg version="1.1" id="Layer_1" xmlns="http://www.w3.org/2000/svg" xmlns:xlink="http://www.w3.org/1999/xlink" x="0px" y="0px"
	 viewBox="0 0 266.5 153.1" enable-background="new 0 0 266.5 153.1" xml:space="preserve">
<path fill="#007EBE" d="M133-0.4c42.2,0,76.5,34.3,76.5,76.5s-34.3,76.5-76.5,76.5s-76.5-34.3-76.5-76.5S90.8-0.4,133-0.4z"/>
<path fill="#FFFFFF" d="M130.6,57c7.4,0,9.5,0.5,9.5,1.6c0,1.1-2.1,22.7,2.6,22.7c4.8,0,14.3-21.6,14.3-21.6h18.5
	c0,0,3.7,1.1,1.6,4.2c-1.6,3.2-14.8,19.5-14.8,21.6c0,2.1,15.3,14.3,14.8,16.9c0,2.1-1.6,4.2-1.6,4.2h-19c0,0-9.5-11.6-12.1-11.6
	c-2.1,0-3.2,10-4.2,11.6c-1.6,1.1-14.8,0-21.6-4.2c-12.7-7.9-25.9-31.7-28-39.6c-0.5-1.6,0-3.2,1.1-3.7c0.5,0,11.1,0,16.9,0
	c7.4,16.9,10,22.7,14.3,21.6c3.7-0.5,3.2-13.2,1.6-17.4c-1.1-3.7-3.2-2.4-4.5-3.5C117.7,58.3,123.2,57,130.6,57z"/>
</svg>
