<?xml version="1.0" encoding="utf-8"?>
<!-- Generator: Adobe Illustrator 18.1.0, SVG Export Plug-In . SVG Version: 6.00 Build 0)  -->
<svg version="1.1" id="Layer_1" xmlns="http://www.w3.org/2000/svg" xmlns:xlink="http://www.w3.org/1999/xlink" x="0px" y="0px"
	 viewBox="0 0 41 41" enable-background="new 0 0 41 41" xml:space="preserve">
<g>
	<g>
		<path fill="#082F4F" d="M5.9,12h15.6c0.5,0,0.9-0.4,0.9-0.9c0-0.5-0.4-0.9-0.9-0.9H5.9c-0.5,0-0.9,0.4-0.9,0.9
			C5,11.6,5.4,12,5.9,12z M5.9,6.9h7c0.5,0,0.9-0.4,0.9-0.9c0-0.5-0.4-0.9-0.9-0.9h-7C5.4,5.2,5,5.6,5,6C5,6.5,5.4,6.9,5.9,6.9z
			 M38.4,17H16.6c-1.4,0-2.6,1.2-2.6,2.6v11.8c0,1.4,1.2,2.6,2.6,2.6h21.8c1.4,0,2.6-1.2,2.6-2.6V19.6C41,18.2,39.8,17,38.4,17z
			 M39.3,31.4c0,0.5-0.4,0.9-0.9,0.9H16.6c-0.5,0-0.9-0.4-0.9-0.9V19.6c0-0.5,0.4-0.9,0.9-0.9h21.8c0.5,0,0.9,0.4,0.9,0.9V31.4z
			 M31.6,36c-0.5,0-0.9,0.4-0.9,0.9v1.9c0,0.3-0.2,0.5-0.5,0.5h-28c-0.3,0-0.5-0.2-0.5-0.5V2.2c0-0.3,0.2-0.5,0.5-0.5h21.4l0,5.9
			c0,0.5,0.4,0.9,0.9,0.9h6.2v5.8c0,0.5,0.4,0.9,0.9,0.9c0.5,0,0.9-0.4,0.9-0.9V7.7c0-0.7-0.4-1.1-0.7-1.4L26,0.6
			c-0.4-0.4-1-0.6-1.6-0.6H2.2C1,0,0,1,0,2.2v36.5C0,40,1,41,2.2,41h28c1.2,0,2.2-1,2.2-2.2v-1.9C32.4,36.4,32,36,31.6,36z
			 M29.9,6.8h-4.5l0-4.4L29.9,6.8z M21.2,22.2h-1.7c-0.5,0-0.9,0.4-0.9,0.9v5.2c0,0.5,0.4,0.9,0.9,0.9h1.7c0,0,0.1,0,0.1,0
			c1.7-0.1,3.1-1.6,3.1-3.4C24.4,23.7,22.9,22.2,21.2,22.2z M21.2,27.3c0,0-0.1,0-0.1,0h-0.7v-3.5h0.8c0.8,0,1.5,0.8,1.5,1.7
			C22.7,26.6,22,27.3,21.2,27.3z M36.3,26.9c-0.3,0.3-0.7,0.5-1.1,0.5c-0.9,0-1.6-0.8-1.6-1.7c0-1,0.7-1.7,1.6-1.7
			c0.4,0,0.8,0.2,1.1,0.5c0.3,0.3,0.9,0.3,1.2,0c0.3-0.3,0.3-0.9,0-1.2c-0.6-0.6-1.4-1-2.3-1c-1.8,0-3.3,1.5-3.3,3.4
			c0,1.9,1.5,3.4,3.3,3.4c0.9,0,1.7-0.4,2.4-1c0.3-0.3,0.3-0.9,0-1.2C37.2,26.5,36.6,26.5,36.3,26.9z M28.2,22.2
			c-1.8,0-3.2,1.5-3.2,3.4c0,1.9,1.4,3.4,3.2,3.4c1.8,0,3.2-1.5,3.2-3.4C31.4,23.7,30,22.2,28.2,22.2z M28.2,27.4
			c-0.8,0-1.5-0.8-1.5-1.7c0-1,0.7-1.7,1.5-1.7c0.8,0,1.5,0.8,1.5,1.7C29.7,26.6,29,27.4,28.2,27.4z"/>
	</g>
</g>
</svg>
