<?xml version="1.0" encoding="utf-8"?>
<!-- Generator: Adobe Illustrator 18.1.0, SVG Export Plug-In . SVG Version: 6.00 Build 0)  -->
<svg version="1.1" id="Layer_1" xmlns="http://www.w3.org/2000/svg" xmlns:xlink="http://www.w3.org/1999/xlink" x="0px" y="0px"
	 viewBox="0 0 17 17" enable-background="new 0 0 17 17" xml:space="preserve">
<g>
	<g>
		<path fill="#45D7B1" d="M8.5,0C3.8,0,0,3.8,0,8.5C0,13.2,3.8,17,8.5,17c4.7,0,8.5-3.8,8.5-8.5C17,3.8,13.2,0,8.5,0z M8.5,16
			C4.4,16,1,12.6,1,8.5C1,4.4,4.4,1,8.5,1S16,4.4,16,8.5C16,12.6,12.6,16,8.5,16z M12.4,5.1l-4.7,6l-2-2.6C5.5,8.4,5.3,8.3,5.1,8.5
			C5,8.6,4.9,8.8,5.1,8.9l2.3,2.9C7.4,12,7.5,12,7.7,12c0.1,0,0.2,0,0.3-0.1l5-6.3C13,5.4,13,5.2,12.9,5.1C12.7,5,12.5,5,12.4,5.1z"
			/>
	</g>
</g>
</svg>
