<?xml version="1.0" encoding="utf-8"?>
<!-- Generator: Adobe Illustrator 18.1.0, SVG Export Plug-In . SVG Version: 6.00 Build 0)  -->
<svg version="1.1" id="Layer_1" xmlns="http://www.w3.org/2000/svg" xmlns:xlink="http://www.w3.org/1999/xlink" x="0px" y="0px"
	 viewBox="0 0 41 41" enable-background="new 0 0 41 41" xml:space="preserve">
<g>
	<g>
		<path fill="#082F4F" d="M35.2,22.3H32c-0.5,0-0.9,0.4-0.9,0.9v4.9c0,0.5,0.4,0.9,0.9,0.9c0.5,0,0.9-0.4,0.9-0.9v-1.6h1.9
			c0.5,0,0.9-0.4,0.9-0.9c0-0.5-0.4-0.9-0.9-0.9h-1.9V24h2.3c0.5,0,0.9-0.4,0.9-0.9C36.1,22.7,35.7,22.3,35.2,22.3z M38.4,17H16.6
			c-1.4,0-2.6,1.2-2.6,2.6v11.8c0,1.4,1.2,2.6,2.6,2.6h21.8c1.4,0,2.6-1.2,2.6-2.6V19.6C41,18.2,39.8,17,38.4,17z M39.3,31.4
			c0,0.5-0.4,0.9-0.9,0.9H16.6c-0.5,0-0.9-0.4-0.9-0.9V19.6c0-0.5,0.4-0.9,0.9-0.9h21.8c0.5,0,0.9,0.4,0.9,0.9V31.4z M31.6,36
			c-0.5,0-0.9,0.4-0.9,0.9v1.9c0,0.3-0.2,0.5-0.5,0.5h-28c-0.3,0-0.5-0.2-0.5-0.5V2.2c0-0.3,0.2-0.5,0.5-0.5h21.4l0,5.9
			c0,0.5,0.4,0.9,0.9,0.9h6.2v5.8c0,0.5,0.4,0.9,0.9,0.9c0.5,0,0.9-0.4,0.9-0.9V7.7c0-0.7-0.4-1.1-0.7-1.4L26,0.6
			c-0.4-0.4-1-0.6-1.6-0.6H2.2C1,0,0,1,0,2.2v36.5C0,40,1,41,2.2,41h28c1.2,0,2.2-1,2.2-2.2v-1.9C32.4,36.4,32,36,31.6,36z
			 M29.9,6.8h-4.5l0-4.4L29.9,6.8z M21.5,22.3h-1.8c-0.5,0-0.9,0.4-0.9,0.9v4.9c0,0.5,0.4,0.9,0.9,0.9c0.5,0,0.9-0.4,0.9-0.9v-1.4
			l1,0c1,0,2.4-0.6,2.4-2.2c0-0.6-0.2-1.1-0.6-1.5C22.6,22.3,21.6,22.3,21.5,22.3z M21.5,25l-1,0V24l1,0c0.1,0,0.5,0,0.6,0.2
			c0,0,0.1,0.1,0.1,0.2C22.2,24.9,21.7,25,21.5,25z M27,22.3h-1.7c-0.5,0-0.9,0.4-0.9,0.9v4.9c0,0.5,0.4,0.9,0.9,0.9H27
			c0,0,0.1,0,0.1,0c1.7-0.1,3-1.5,3-3.3C30.2,23.8,28.8,22.3,27,22.3z M27,27.2c0,0-0.1,0-0.1,0h-0.7V24H27c0.8,0,1.4,0.7,1.4,1.6
			C28.5,26.5,27.8,27.2,27,27.2z"/>
	</g>
</g>
</svg>
