<?xml version="1.0" encoding="utf-8"?>
<!-- Generator: Adobe Illustrator 18.1.0, SVG Export Plug-In . SVG Version: 6.00 Build 0)  -->
<svg version="1.1" id="Layer_1" xmlns="http://www.w3.org/2000/svg" xmlns:xlink="http://www.w3.org/1999/xlink" x="0px" y="0px"
	 viewBox="0 0 17 17" enable-background="new 0 0 17 17" xml:space="preserve">
<g>
	<g>
		<path fill-rule="evenodd" clip-rule="evenodd" fill="#9C9C9C" d="M8.5,0C3.8,0,0,3.8,0,8.5C0,13.2,3.8,17,8.5,17
			c4.7,0,8.5-3.8,8.5-8.5C17,3.8,13.2,0,8.5,0z M8.5,16C4.4,16,1,12.6,1,8.5C1,4.4,4.4,1,8.5,1C12.6,1,16,4.4,16,8.5
			C16,12.6,12.6,16,8.5,16z M5,9h7V8H5V9z"/>
	</g>
</g>
</svg>
