<?xml version="1.0" encoding="utf-8"?>
<!-- Generator: Adobe Illustrator 18.1.0, SVG Export Plug-In . SVG Version: 6.00 Build 0)  -->
<svg version="1.1" id="Layer_1" xmlns="http://www.w3.org/2000/svg" xmlns:xlink="http://www.w3.org/1999/xlink" x="0px" y="0px"
	 viewBox="0 0 19 17.1" enable-background="new 0 0 19 17.1" xml:space="preserve">
<g>
	<g>
		<path fill="#5CE1A1" d="M18.7,3c-0.2-0.1-0.5,0-0.6,0.2l-0.7,1.8c-1.4-3-4.5-5-8-5c-3.8,0-7.3,2.5-8.3,6.1
			C1.1,6.4,1.2,6.7,1.4,6.7C1.7,6.8,1.9,6.7,2,6.4c1-3.2,4-5.5,7.5-5.5c3.2,0,6,1.9,7.2,4.6l-1.9-0.7c-0.2-0.1-0.5,0-0.6,0.2
			c-0.1,0.2,0,0.5,0.2,0.6l2.8,1.1c0.1,0,0.1,0,0.2,0c0,0,0.1,0,0.1,0c0,0,0,0,0,0c0,0,0,0,0,0c0,0,0,0,0,0c0,0,0,0,0.1,0
			c0,0,0,0,0.1-0.1c0,0,0,0,0-0.1c0,0,0,0,0,0L19,3.6C19,3.4,18.9,3.1,18.7,3z M17.6,10.4c-0.2-0.1-0.5,0.1-0.5,0.3
			c-1,3.2-4,5.5-7.5,5.5c-3.2,0-6-1.9-7.2-4.6l1.9,0.7c0.2,0.1,0.5,0,0.6-0.2c0.1-0.2,0-0.5-0.2-0.6l-2.8-1.1c0,0,0,0-0.1,0
			c0,0,0,0-0.1,0c0,0-0.1,0-0.1,0c0,0,0,0,0,0c0,0,0,0,0,0c0,0-0.1,0-0.1,0c0,0,0,0-0.1,0c0,0,0,0-0.1,0.1c0,0,0,0,0,0.1
			c0,0,0,0,0,0L0,13.6c-0.1,0.2,0,0.5,0.2,0.6c0.1,0,0.1,0,0.2,0c0.2,0,0.3-0.1,0.4-0.3L1.6,12c1.4,3,4.5,5,8,5
			c3.8,0,7.3-2.5,8.3-6.1C17.9,10.7,17.8,10.5,17.6,10.4z"/>
	</g>
</g>
</svg>
