<?xml version="1.0" encoding="utf-8"?>
<!-- Generator: Adobe Illustrator 18.1.0, SVG Export Plug-In . SVG Version: 6.00 Build 0)  -->
<svg version="1.1" id="Layer_1" xmlns="http://www.w3.org/2000/svg" xmlns:xlink="http://www.w3.org/1999/xlink" x="0px" y="0px"
	 viewBox="0 0 34 47.9" enable-background="new 0 0 34 47.9" xml:space="preserve">
<g>
	<g>
		<path fill="#082F4F" d="M14.8,35.9c-0.5-0.2-1.1,0.1-1.3,0.6l-3,8.4L8,41.6c-0.2-0.3-0.6-0.4-0.9-0.4l-3.9,0.8l3.1-8.9
			c0.2-0.5-0.1-1.1-0.6-1.3c-0.5-0.2-1.1,0.1-1.3,0.6L0.7,43c-0.1,0.3-0.1,0.7,0.2,1c0.2,0.3,0.6,0.4,0.9,0.3l5.1-1l3.3,4.1
			c0.2,0.2,0.5,0.4,0.8,0.4c0.1,0,0.1,0,0.2,0c0.3-0.1,0.6-0.3,0.8-0.7l3.5-10C15.5,36.6,15.3,36.1,14.8,35.9z M29.6,32.5
			c-0.2-0.5-0.7-0.8-1.3-0.6c-0.5,0.2-0.8,0.8-0.6,1.3l3.1,8.9L27,41.3c-0.4-0.1-0.7,0.1-0.9,0.4l-2.5,3.2l-3-8.4
			c-0.2-0.5-0.8-0.8-1.3-0.6c-0.5,0.2-0.8,0.8-0.6,1.3l3.5,10c0.1,0.3,0.4,0.6,0.8,0.7c0.1,0,0.1,0,0.2,0c0.3,0,0.6-0.1,0.8-0.4
			l3.3-4.1l5.1,1c0.3,0.1,0.7-0.1,0.9-0.3c0.2-0.3,0.3-0.7,0.2-1L29.6,32.5z M31.7,17.5l2.2-3.9C34,13.3,34,13,34,12.8
			c-0.1-0.3-0.2-0.5-0.5-0.6l-3.8-2.3V5.4c0-0.6-0.4-1-1-1h-4.4l-2.2-3.9C22,0.2,21.8,0.1,21.5,0c-0.3-0.1-0.5,0-0.7,0.1L17,2.4
			l-3.8-2.3C13,0,12.7-0.1,12.5,0c-0.3,0.1-0.5,0.2-0.6,0.5L9.7,4.4H5.3c-0.5,0-1,0.5-1,1v4.5l-3.8,2.3c-0.2,0.1-0.4,0.4-0.5,0.6
			C0,13,0,13.3,0.1,13.6l2.2,3.9l-2.2,3.9C0,21.6,0,21.9,0,22.1c0.1,0.3,0.2,0.5,0.5,0.6L4.3,25v4.5c0,0.6,0.4,1,1,1h4.4l2.2,3.9
			c0.1,0.2,0.3,0.4,0.6,0.5c0.3,0.1,0.5,0,0.7-0.1l3.8-2.3l3.8,2.3c0.2,0.1,0.3,0.1,0.5,0.1c0.1,0,0.2,0,0.3,0
			c0.3-0.1,0.5-0.2,0.6-0.5l2.2-3.9h4.4c0.5,0,1-0.5,1-1V25l3.8-2.3c0.2-0.1,0.4-0.4,0.5-0.6c0.1-0.3,0-0.5-0.1-0.8L31.7,17.5z
			 M29.7,18l2,3.5l-3.4,2c-0.3,0.2-0.5,0.5-0.5,0.9v4.1h-4c-0.4,0-0.7,0.2-0.9,0.5l-2,3.5l-3.4-2c-0.2-0.1-0.3-0.1-0.5-0.1
			c-0.2,0-0.3,0-0.5,0.1l-3.4,2l-2-3.5c-0.2-0.3-0.5-0.5-0.9-0.5h-4v-4.1c0-0.4-0.2-0.7-0.5-0.9l-3.4-2l2-3.5c0.2-0.3,0.2-0.7,0-1
			l-2-3.5l3.4-2c0.3-0.2,0.5-0.5,0.5-0.9V6.4h4c0.4,0,0.7-0.2,0.9-0.5l2-3.5l3.4,2c0.3,0.2,0.7,0.2,1,0l3.4-2l2,3.5
			c0.2,0.3,0.5,0.5,0.9,0.5h4v4.1c0,0.4,0.2,0.7,0.5,0.9l3.4,2l-2,3.5C29.5,17.3,29.5,17.7,29.7,18z M17,7.1c-5.5,0-10,4.6-10,10.3
			c0,5.7,4.5,10.3,10,10.3c5.5,0,10-4.6,10-10.3C27,11.8,22.5,7.1,17,7.1z M17,25.8c-4.4,0-8.1-3.7-8.1-8.3c0-4.6,3.6-8.3,8.1-8.3
			s8.1,3.7,8.1,8.3C25.1,22,21.4,25.8,17,25.8z"/>
	</g>
</g>
</svg>
