<?xml version="1.0" encoding="utf-8"?>
<!-- Generator: Adobe Illustrator 18.1.0, SVG Export Plug-In . SVG Version: 6.00 Build 0)  -->
<svg version="1.1" id="Layer_1" xmlns="http://www.w3.org/2000/svg" xmlns:xlink="http://www.w3.org/1999/xlink" x="0px" y="0px"
	 viewBox="0 0 25.6 15.1" enable-background="new 0 0 25.6 15.1" xml:space="preserve">
<g>
	<g>
		<path fill="#082F4F" d="M20.5,12.3c-0.1,0.1-0.2,0.2-0.2,0.4c0,0.1,0.1,0.3,0.2,0.4c0.1,0.1,0.2,0.2,0.4,0.2
			c0.1,0,0.3-0.1,0.4-0.2c0.1-0.1,0.1-0.2,0.1-0.4c0-0.1-0.1-0.3-0.2-0.4C21,12.1,20.7,12.1,20.5,12.3z M6.6,12.3
			c-0.1,0.1-0.1,0.2-0.1,0.4c0,0.1,0.1,0.3,0.2,0.4c0.1,0.1,0.2,0.1,0.4,0.1c0.1,0,0.3-0.1,0.4-0.2c0.1-0.1,0.1-0.2,0.1-0.4
			c0-0.1-0.1-0.3-0.2-0.4C7.1,12.1,6.8,12.1,6.6,12.3z M24.8,6.1l-1.5-0.9l-1.9-4.9C21.3,0.1,21.1,0,20.9,0H2.6
			C2.3,0,2.1,0.2,2.1,0.5v2.1c0,0.3,0.2,0.5,0.5,0.5c0.3,0,0.5-0.2,0.5-0.5V1h13.9v4.5c0,0,0,0,0,0c0,0,0,0,0,0v4.5H3.3c0,0,0,0,0,0
			H3.1V8.7c0-0.3-0.2-0.5-0.5-0.5c-0.3,0-0.5,0.2-0.5,0.5v2c0,0.3,0.2,0.5,0.5,0.5h0.1v1.5c0,0.3,0.2,0.5,0.5,0.5h1.1
			c0.2,1.1,1.3,2,2.6,2c1.2,0,2.3-0.8,2.5-1.9h8.9c0.3,1.1,1.3,1.9,2.5,1.9c1.2,0,2.3-0.8,2.6-1.9h1.7c0.3,0,0.5-0.2,0.5-0.5V7.4
			C25.6,6.9,25.3,6.4,24.8,6.1z M4.3,12.2H3.8v-1h1C4.6,11.5,4.4,11.8,4.3,12.2z M6.9,14.2c-0.9,0-1.6-0.7-1.6-1.5
			c0-0.8,0.7-1.5,1.6-1.5c0.9,0,1.6,0.7,1.6,1.5C8.4,13.5,7.8,14.2,6.9,14.2z M18.1,1h2.4l1.6,4.1h-4V1z M18.3,12.2H9.5
			c-0.1-0.4-0.2-0.7-0.5-1h9.8C18.5,11.5,18.4,11.9,18.3,12.2z M20.9,14.2c-0.9,0-1.6-0.7-1.6-1.5c0-0.8,0.7-1.5,1.6-1.5
			c0.9,0,1.6,0.7,1.6,1.5C22.4,13.5,21.7,14.2,20.9,14.2z M24.5,12.2h-1.1c-0.1-0.4-0.2-0.7-0.5-1h1.6V12.2z M24.5,10.2h-6.4V6.1
			h4.6L24.3,7c0.2,0.1,0.3,0.3,0.3,0.4V10.2z M4.3,6.6c0-0.3-0.2-0.5-0.5-0.5H1.6c-0.3,0-0.5,0.2-0.5,0.5c0,0.3,0.2,0.5,0.5,0.5h2.1
			C4,7.1,4.3,6.9,4.3,6.6z M5.3,4.6c0-0.3-0.2-0.5-0.5-0.5H0.5C0.2,4.1,0,4.3,0,4.6c0,0.3,0.2,0.5,0.5,0.5h4.3
			C5.1,5.1,5.3,4.9,5.3,4.6z"/>
	</g>
</g>
</svg>
