<?xml version="1.0" encoding="utf-8"?>
<!-- Generator: Adobe Illustrator 18.1.0, SVG Export Plug-In . SVG Version: 6.00 Build 0)  -->
<svg version="1.1" id="Layer_1" xmlns="http://www.w3.org/2000/svg" xmlns:xlink="http://www.w3.org/1999/xlink" x="0px" y="0px"
	 viewBox="0 0 29 29" enable-background="new 0 0 29 29" xml:space="preserve">
<path fill-rule="evenodd" clip-rule="evenodd" fill="#21579F" d="M14.5,0C22.5,0,29,6.5,29,14.5S22.5,29,14.5,29S0,22.5,0,14.5
	S6.5,0,14.5,0z"/>
<path fill-rule="evenodd" clip-rule="evenodd" fill="#FFFFFF" d="M19,9.1c0,0,0,0,0-0.1c0-0.5,0-3,0-3h-3.2c0,0-3,0.2-3,2.8
	c0,2.6,0,14.2,0,14.2h3.5c0,0,0-13.8,0-13.9C16.3,9,19,9.1,19,9.1z"/>
<path fill-rule="evenodd" clip-rule="evenodd" fill="#FFFFFF" d="M11,12.3v2.7h7.5l0.5-2.7H11z"/>
</svg>
