<?xml version="1.0" encoding="utf-8"?>
<!-- Generator: Adobe Illustrator 18.1.0, SVG Export Plug-In . SVG Version: 6.00 Build 0)  -->
<svg version="1.1" id="Layer_1" xmlns="http://www.w3.org/2000/svg" xmlns:xlink="http://www.w3.org/1999/xlink" x="0px" y="0px"
	 viewBox="0 0 49 49" enable-background="new 0 0 49 49" xml:space="preserve">
<g>
	<g>
		<path fill="#082F4F" d="M24.5,8.3c-7.9,0-14.4,6.3-14.4,14c0,5.1,2.8,9.7,7.4,12.2l2.7,7.4c0.1,0.4,0.5,0.7,0.9,0.7h6.8
			c0.4,0,0.8-0.3,0.9-0.7l2.7-7.4c4.5-2.5,7.4-7.1,7.4-12.2C38.9,14.6,32.4,8.3,24.5,8.3z M30.3,32.9c-0.2,0.1-0.4,0.3-0.5,0.5
			l-2.6,7.1h-5.4l-2.6-7.1c-0.1-0.2-0.3-0.4-0.5-0.5c-4.1-2.1-6.6-6.2-6.6-10.6c0-6.6,5.6-12,12.4-12c6.8,0,12.4,5.4,12.4,12
			C36.9,26.8,34.3,30.9,30.3,32.9z M27.4,44.1h-6c-0.6,0-1,0.4-1,1c0,0.6,0.4,1,1,1h6c0.6,0,1-0.4,1-1
			C28.4,44.6,27.9,44.1,27.4,44.1z M27.4,47h-6c-0.6,0-1,0.4-1,1c0,0.6,0.4,1,1,1h6c0.6,0,1-0.4,1-1C28.4,47.4,27.9,47,27.4,47z
			 M24.5,7.1c0.6,0,1-0.4,1-1V1c0-0.6-0.4-1-1-1c-0.6,0-1,0.4-1,1v5.1C23.5,6.6,23.9,7.1,24.5,7.1z M12,12.2c0.2,0,0.5-0.1,0.7-0.3
			c0.4-0.4,0.4-1,0.1-1.4L9.2,6.7c-0.4-0.4-1-0.4-1.4-0.1C7.4,7,7.4,7.7,7.8,8.1l3.5,3.8C11.5,12.1,11.7,12.2,12,12.2z M39.8,6.7
			l-3.5,3.8c-0.4,0.4-0.4,1,0.1,1.4c0.2,0.2,0.4,0.3,0.7,0.3c0.3,0,0.5-0.1,0.7-0.3l3.5-3.8c0.4-0.4,0.4-1-0.1-1.4
			C40.8,6.3,40.2,6.3,39.8,6.7z M6.2,21.3H1c-0.6,0-1,0.4-1,1c0,0.6,0.4,1,1,1h5.2c0.6,0,1-0.4,1-1C7.2,21.7,6.8,21.3,6.2,21.3z
			 M48,21.3h-5.2c-0.6,0-1,0.4-1,1c0,0.6,0.4,1,1,1H48c0.6,0,1-0.4,1-1C49,21.7,48.6,21.3,48,21.3z M28,20.2
			c-0.5-0.1-1.1,0.3-1.1,0.9l-2.3,16.5l-2.3-16.5c-0.1-0.5-0.6-0.9-1.1-0.9c-0.5,0.1-0.9,0.6-0.9,1.1l2.5,18c0.1,0.5,0.5,0.9,1,0.9
			c0,0,0.1,0,0.1,0c0.3,0,0.5-0.2,0.6-0.4c0.2,0.2,0.4,0.3,0.6,0.4c0,0,0.1,0,0.1,0c0.5,0,0.9-0.4,1-0.9l2.5-18
			C28.9,20.8,28.5,20.3,28,20.2z"/>
	</g>
</g>
</svg>
