<?xml version="1.0" encoding="utf-8"?>
<!-- Generator: Adobe Illustrator 18.1.0, SVG Export Plug-In . SVG Version: 6.00 Build 0)  -->
<svg version="1.1" id="Layer_1" xmlns="http://www.w3.org/2000/svg" xmlns:xlink="http://www.w3.org/1999/xlink" x="0px" y="0px"
	 viewBox="0 0 50 50" enable-background="new 0 0 50 50" xml:space="preserve">
<path fill="#082F4F" d="M27.3,50h-4.5c-1.4,0-2.5-1.1-2.5-2.5v-3.4c-1.9-0.5-3.7-1.2-5.4-2.2l-2.4,2.4c-0.9,0.9-2.6,0.9-3.5,0
	l-3.2-3.2C5.3,40.6,5,40,5,39.3c0-0.7,0.3-1.3,0.7-1.8l2.4-2.4c-1-1.7-1.8-3.5-2.2-5.4H2.5c-1.4,0-2.5-1.1-2.5-2.5v-4.5
	c0-1.4,1.1-2.5,2.5-2.5h3.4c0.5-1.9,1.2-3.7,2.2-5.4l-2.4-2.4c-1-1-1-2.6,0-3.5l3.2-3.2c0.9-0.9,2.6-0.9,3.5,0l2.4,2.4
	c1.7-1,3.5-1.8,5.4-2.2V2.5c0-1.4,1.1-2.5,2.5-2.5h4.5c1.4,0,2.5,1.1,2.5,2.5v3.4c1.9,0.5,3.7,1.2,5.4,2.2l2.4-2.4
	C38,5.3,38.6,5,39.3,5l0,0c0.7,0,1.3,0.3,1.8,0.7l3.2,3.2c1,1,1,2.6,0,3.5l-2.4,2.4c1,1.7,1.8,3.5,2.2,5.4h3.4
	c1.4,0,2.5,1.1,2.5,2.5v4.5c0,1.4-1.1,2.5-2.5,2.5h-3.4c-0.5,1.9-1.2,3.7-2.2,5.4l2.4,2.4c0.5,0.5,0.7,1.1,0.7,1.8
	c0,0.7-0.3,1.3-0.7,1.8l-3.2,3.2c-0.9,0.9-2.6,0.9-3.5,0l-2.4-2.4c-1.7,1-3.5,1.8-5.4,2.2v3.4C29.8,48.9,28.6,50,27.3,50z
	 M14.6,39.3l0.7,0.4c1.9,1.3,4,2.1,6.2,2.6l0.8,0.2v5c0,0.3,0.2,0.5,0.5,0.5h4.5c0.3,0,0.5-0.2,0.5-0.5v-5l0.8-0.2
	c2.2-0.4,4.3-1.3,6.2-2.6l0.7-0.4l3.6,3.6c0.1,0.1,0.3,0.1,0.4,0.1c0.1,0,0.2,0,0.4-0.1l3.2-3.2c0.1-0.1,0.1-0.3,0.1-0.4
	c0-0.1,0-0.2-0.1-0.4l-3.6-3.6l0.5-0.7c1.3-1.9,2.1-4,2.6-6.2l0.2-0.8h5c0.3,0,0.5-0.2,0.5-0.5v-4.5c0-0.3-0.2-0.5-0.5-0.5h-5
	l-0.2-0.8c-0.4-2.2-1.3-4.3-2.6-6.2l-0.5-0.7l3.6-3.6c0.2-0.2,0.2-0.5,0-0.7l-3.2-3.2C39.5,7,39.4,7,39.3,7c-0.1,0-0.2,0-0.4,0.1
	l-3.6,3.6l-0.7-0.4c-1.9-1.3-4-2.1-6.2-2.6l-0.8-0.2v-5c0-0.3-0.2-0.5-0.5-0.5h-4.5c-0.3,0-0.5,0.2-0.5,0.5v5l-0.8,0.2
	c-2.2,0.5-4.3,1.3-6.2,2.6l-0.7,0.4L11,7.1C10.9,7,10.8,7,10.7,7c-0.1,0-0.2,0-0.4,0.1l-3.2,3.2C7,10.5,7,10.8,7.1,11l3.6,3.6
	l-0.5,0.7c-1.3,1.9-2.1,4-2.6,6.2l-0.2,0.8h-5c-0.3,0-0.5,0.2-0.5,0.5v4.5c0,0.3,0.2,0.5,0.5,0.5h5l0.2,0.8c0.4,2.2,1.3,4.3,2.6,6.2
	l0.5,0.7L7.1,39C7,39.1,7,39.2,7,39.3c0,0.1,0,0.2,0.1,0.4l3.2,3.2c0.1,0.1,0.3,0.1,0.4,0.1c0.1,0,0.2,0,0.4-0.1L14.6,39.3z
	 M25,38.5c-7.4,0-13.5-6.1-13.5-13.5c0-7.4,6.1-13.5,13.5-13.5c7.4,0,13.5,6.1,13.5,13.5C38.5,32.4,32.4,38.5,25,38.5z M25.5,13.5
	c-6,0-12,5-12,11c0,6,5,12,11,12c6,0,12-5,12-11C36.5,19.5,31.5,13.5,25.5,13.5z"/>
</svg>
