<?xml version="1.0" encoding="utf-8"?>
<!-- Generator: Adobe Illustrator 18.1.0, SVG Export Plug-In . SVG Version: 6.00 Build 0)  -->
<svg version="1.1" id="Layer_1" xmlns="http://www.w3.org/2000/svg" xmlns:xlink="http://www.w3.org/1999/xlink" x="0px" y="0px"
	 viewBox="0 0 17.3 14.6" enable-background="new 0 0 17.3 14.6" xml:space="preserve">
<g>
	<g>
		<path fill-rule="evenodd" clip-rule="evenodd" fill="#9C9C9C" d="M17,13.4l-4.9-3.6c0.6-1,0.9-2.1,0.9-3.3C13,2.9,10.1,0,6.5,0
			S0,2.9,0,6.5C0,10.1,2.9,13,6.5,13c1.9,0,3.6-0.8,4.8-2.1l4.9,3.6c0.3,0.2,0.7,0.2,0.9-0.1C17.4,14.1,17.3,13.6,17,13.4z M6.5,12
			C3.5,12,1,9.5,1,6.5S3.5,1,6.5,1S12,3.5,12,6.5S9.5,12,6.5,12z"/>
	</g>
</g>
</svg>
